<svg width="270" height="270" viewBox="0 0 270 270" fill="none" xmlns="http://www.w3.org/2000/svg">
<g clip-path="url(#clip0_1525_19570)">
<path opacity="0.5" d="M205.5 16.2281C214.513 29.2641 203.945 50.3979 217.316 60.2021C230.333 69.7452 246.323 54.1007 258.59 62.3173C276.786 74.5033 273.464 130.266 246.858 164.912C238.857 175.329 232.172 179.385 229.21 191.169C222.853 216.471 245.198 231.523 240.946 244.037C231.375 272.215 84.1219 295.859 25.039 211.176C-2.55722 171.626 -6.6846 114.514 17.9699 71.1387C62.5206 -7.24105 185.279 -13.021 205.5 16.2281Z" fill="url(#paint0_linear_1525_19570)" fill-opacity="0.5"/>
<path d="M0.00012207 236.97L263.588 235.009V240.811C263.588 241.573 263.315 242.31 262.819 242.888C262.323 243.466 261.636 243.848 260.883 243.964L186.348 255.39C185.462 255.526 184.564 255.562 183.669 255.498L2.86194 242.471C2.08374 242.415 1.35562 242.067 0.824097 241.496C0.292603 240.925 -0.00280762 240.174 -0.00268555 239.394L0.00012207 236.97Z" fill="url(#paint1_linear_1525_19570)"/>
<path d="M95.6545 227.564L260.86 238.18C263.817 238.365 266.221 236.351 266.221 233.67V126.296C266.221 123.616 263.817 121.443 260.86 121.443H95.6545C95.0771 121.442 94.5052 121.554 93.9712 121.774C93.4373 121.994 92.952 122.317 92.5428 122.724C92.1338 123.131 91.8089 123.615 91.587 124.148C91.3651 124.681 91.2503 125.253 91.2494 125.83V222.892C91.2494 225.317 93.2192 227.408 95.6545 227.564Z" fill="url(#paint2_linear_1525_19570)"/>
<path d="M93.0197 227.564L258.226 238.18C261.182 238.365 263.586 236.351 263.586 233.67V126.296C263.586 123.616 261.182 121.443 258.226 121.443H93.0197C92.4424 121.442 91.8703 121.554 91.3364 121.774C90.8025 121.994 90.3171 122.317 89.9081 122.724C89.4989 123.131 89.1742 123.615 88.9522 124.148C88.7303 124.681 88.6155 125.253 88.6146 125.83V222.892C88.6146 225.317 90.5844 227.408 93.0197 227.564Z" fill="url(#paint3_linear_1525_19570)"/>
<path d="M98.1659 220.722L252.036 229.942C254.442 230.086 256.396 228.429 256.396 226.242V132.231C256.396 130.044 254.445 128.263 252.036 128.253L98.1659 127.675C97.6909 127.671 97.2198 127.761 96.7797 127.94C96.3396 128.118 95.9391 128.382 95.6014 128.716C95.2637 129.05 94.9953 129.448 94.8118 129.886C94.6283 130.324 94.5332 130.794 94.532 131.269V216.893C94.532 218.888 96.1571 220.601 98.1659 220.722Z" fill="url(#paint4_linear_1525_19570)"/>
<path d="M169.789 124.38C169.789 125.377 170.639 126.189 171.689 126.192C172.739 126.195 173.594 125.387 173.594 124.386C173.594 123.386 172.741 122.576 171.689 122.575C170.637 122.574 169.789 123.382 169.789 124.38Z" fill="white"/>
<g style="mix-blend-mode:soft-light" opacity="0.48">
<path d="M132.824 198.116C145.561 191.885 155.575 199.779 165.239 191.991C171.099 187.269 168.222 183.747 175.431 176.691C183.417 168.875 188.615 171.502 196.641 164.468C206.788 155.573 201.713 148.653 210.453 142.266C221.057 134.519 232.491 141.69 242.586 134.26C246.939 131.055 249.328 126.397 250.577 121.441H260.451C262.182 121.441 263.588 122.716 263.588 124.289V235.595C263.588 237.168 262.182 238.352 260.451 238.241L92.0786 227.372C91.6787 227.343 91.29 227.227 90.9395 227.032C90.589 226.837 90.2852 226.569 90.0493 226.244C102.375 225.837 109.946 222.08 114.787 218.196C124.256 210.603 122.614 203.111 132.824 198.116Z" fill="white"/>
</g>
<path d="M86.4358 227.083L263.588 238.256L186.346 250.097C185.461 250.232 184.563 250.267 183.669 250.203L-0.00268555 236.969L83.6149 227.158C84.551 227.049 85.4951 227.024 86.4358 227.083Z" fill="url(#paint5_linear_1525_19570)"/>
<path style="mix-blend-mode:multiply" opacity="0.3" d="M237.738 238.537L90.2545 229.097L44.6092 234.409L190.823 244.5L237.738 238.537Z" fill="url(#paint6_linear_1525_19570)"/>
<path d="M17.6753 81.122C12.8436 81.5289 8.56389 77.6161 8.12347 72.3824C7.68304 67.1487 11.2436 62.5763 16.0781 62.1695C16.3289 62.1481 16.577 62.1453 16.8214 62.1472C17.0469 59.4786 17.4677 56.8302 18.0804 54.2232C17.8509 54.1303 17.6214 54.0318 17.3956 53.9157C12.9886 51.6509 11.0661 45.9768 13.101 41.241C15.1359 36.5052 20.3597 34.5005 24.7667 36.7653C24.9971 36.8833 25.2164 37.0161 25.4329 37.1527C26.8622 34.9933 28.4558 32.9473 30.1995 31.0327C30.0397 30.8246 29.8818 30.6119 29.735 30.3824C26.9354 26.0535 27.8822 20.137 31.8479 17.168C35.8136 14.1991 41.2994 15.3008 44.098 19.6288C44.2411 19.8509 44.3684 20.0794 44.492 20.3088C46.7453 19.2226 49.0861 18.3279 51.4895 17.6344C51.4468 17.3706 51.4068 17.1049 51.3845 16.8336C50.9432 11.6008 49.9908 5.69172 54.8299 5.36008C66.0301 4.59741 68.4506 10.1303 68.8956 15.3631C68.9179 15.6343 68.9235 15.9028 68.9254 16.1694C71.4108 16.452 73.8681 16.943 76.2713 17.6372C76.355 17.3901 76.4423 17.1439 76.5501 16.9005C78.5859 12.1628 78.2179 9.00438 82.8443 10.7805C92.9332 14.6496 94.5453 20.3646 92.5076 25.1004C92.4017 25.3484 92.2809 25.5835 92.1582 25.8157C94.1979 27.4116 96.1114 29.1623 97.8819 31.0522C98.0724 30.8822 98.2666 30.7141 98.4738 30.5589C102.439 27.5863 107.924 28.6917 110.724 33.0207C113.523 37.3496 112.577 43.2661 108.61 46.2351C108.407 46.3874 108.198 46.5221 107.987 46.6522C109.027 49.1203 109.885 51.6613 110.554 54.2547C110.797 54.212 111.042 54.173 111.297 54.1516C116.129 53.7448 120.403 57.6575 120.849 62.8913C121.295 68.125 117.728 72.6973 112.894 73.1042C112.644 73.1256 112.395 73.1283 112.15 73.1265C111.925 75.795 111.504 78.4434 110.891 81.0505C111.121 81.1434 111.349 81.2419 111.575 81.358C115.983 83.6228 117.905 89.2968 115.87 94.0336C113.834 98.7703 108.612 100.773 104.205 98.5084C103.974 98.3904 103.754 98.2575 103.538 98.121C102.109 100.281 100.516 102.327 98.7711 104.241C98.9319 104.45 99.0889 104.662 99.2357 104.891C102.034 109.22 101.088 115.137 97.1219 118.107C93.1552 121.076 84.5697 119.717 81.7711 115.388C81.6271 115.166 84.6013 115.194 84.4777 114.965C82.2248 116.051 79.8843 116.946 77.4811 117.639C77.5239 117.903 77.5629 118.169 77.5861 118.44C78.0266 123.673 74.465 128.246 69.6306 128.653C64.7961 129.06 60.5192 125.147 60.0787 119.914C60.0555 119.643 60.05 119.375 60.0481 119.108C57.5626 118.825 55.1053 118.334 52.7021 117.64C52.6185 117.887 52.5321 118.133 52.4233 118.377C50.3885 123.115 45.1656 125.116 40.7586 122.852C36.3515 120.587 34.4282 114.913 36.464 110.177C36.5699 109.93 36.6898 109.694 36.8133 109.462C34.7735 107.866 32.8599 106.115 31.0897 104.225C30.9038 104.395 30.705 104.563 30.4978 104.718C26.5312 107.691 21.0463 106.586 18.2477 102.257C15.449 97.9278 16.3949 92.0112 20.3615 89.0423C20.5641 88.8899 20.7741 88.7562 20.9841 88.6252C19.9439 86.1571 19.0862 83.6161 18.4177 81.0226C18.1705 81.0616 17.9253 81.1006 17.6753 81.122ZM67.3857 102.043C84.9386 100.565 97.8708 83.9628 96.2698 64.961C94.6688 45.9592 79.136 31.7527 61.5849 33.2306C44.0339 34.7086 31.098 51.3137 32.7009 70.3136C34.3037 89.3135 49.8291 103.521 67.382 102.043H67.3857Z" fill="#BFC6D1"/>
<path d="M17.4013 53.9148C12.9943 51.65 11.0718 45.9759 13.1067 41.2392C15.1416 36.5024 20.3654 34.4996 24.7724 36.7644C25.0028 36.8824 25.2221 37.0152 25.4386 37.1518C26.8677 34.9922 28.4613 32.9462 30.2053 31.0318C30.0454 30.8237 29.8875 30.611 29.7407 30.3815C26.9411 26.0526 24.791 17.4691 29.041 14.9191C37.1071 10.0885 41.306 15.2999 44.1037 19.6279C44.2468 19.85 44.3741 20.0785 44.4986 20.3079C46.7515 19.2215 49.092 18.3269 51.4953 17.6335C51.4525 17.3697 51.4126 17.104 51.3903 16.8327C51.1496 13.9845 52.102 11.3379 53.7931 9.44659C54.8709 17.6301 55.88 25.8216 56.8203 34.0212C41.7557 37.8122 31.2506 53.0722 32.7028 70.309C33.9331 84.914 43.3948 96.6764 55.6765 100.671C55.6486 102.268 55.6068 103.868 55.6217 105.467C55.6616 109.805 55.9432 114.152 56.2294 118.496C55.0375 118.255 53.8606 117.967 52.6985 117.632C52.6149 117.879 52.5285 118.125 52.4198 118.368C50.3849 123.106 45.8366 125.986 37.7278 122.177C33.2427 120.072 34.4246 114.903 36.4604 110.167C36.5663 109.92 36.6862 109.684 36.8098 109.451C34.7699 107.856 32.8564 106.105 31.0861 104.215C30.9003 104.385 30.7014 104.553 30.4942 104.708C26.5276 107.681 17.6299 106.009 14.8303 101.682C12.0307 97.3546 16.3913 92.001 20.3579 89.0321C20.5605 88.8797 20.7705 88.745 20.9805 88.614C19.9404 86.1463 19.0826 83.6056 18.4141 81.0124C18.1707 81.0551 17.9254 81.0941 17.6754 81.1155C12.8438 81.5224 8.56401 77.6096 8.12359 72.3759C7.68316 67.1422 11.2437 62.5698 16.0791 62.163C16.3291 62.1416 16.5772 62.1388 16.8225 62.1407C17.048 59.4721 17.4687 56.8237 18.0815 54.2167C17.8566 54.1293 17.628 54.0318 17.4013 53.9148Z" fill="#BFC6D1"/>
<path d="M13.1674 79.8614C8.33575 80.2683 4.05694 76.3564 3.61558 71.1227C3.17422 65.889 6.73666 61.3157 11.5711 60.9042C11.8211 60.8828 12.0692 60.881 12.3145 60.8828C12.5399 58.214 12.9607 55.5652 13.5735 52.9579C13.344 52.865 13.1145 52.7665 12.8887 52.6504C8.48163 50.3866 6.55919 44.7116 8.59499 39.9757C10.6308 35.2399 15.8527 33.2362 20.2598 35.5C20.4902 35.6189 20.7095 35.7518 20.926 35.8874C22.3555 33.728 23.9494 31.6819 25.6935 29.7675C25.5328 29.5594 25.3748 29.3476 25.2289 29.1172C22.4303 24.7882 23.3762 18.8717 27.3428 15.9028C31.3094 12.9338 36.7933 14.0356 39.592 18.3645C39.736 18.5865 39.8624 18.8141 39.9869 19.0436C42.2398 17.9572 44.5803 17.0625 46.9835 16.3691C46.9408 16.1053 46.9017 15.8405 46.8785 15.5693C46.4372 10.3356 49.9996 5.7623 54.834 5.35542C59.6685 4.94854 63.9445 8.8613 64.3859 14.095C64.4082 14.3663 64.4147 14.6338 64.4165 14.9014C66.9017 15.1836 69.3587 15.6743 71.7616 16.3682C71.8462 16.1211 71.9326 15.8749 72.0404 15.6325C74.0762 10.8948 79.299 8.89288 83.706 11.1568C88.1131 13.4206 90.0364 19.0956 88.0006 23.8314C87.8947 24.0795 87.7749 24.3145 87.6513 24.5467C89.6911 26.1427 91.6047 27.8937 93.3749 29.7842C93.5654 29.6132 93.7596 29.4451 93.9668 29.29C97.9334 26.3173 103.417 27.4228 106.217 31.7517C109.017 36.0806 108.07 41.9972 104.103 44.9661C103.901 45.1184 103.691 45.2531 103.48 45.3841C104.52 47.8518 105.378 50.3925 106.047 52.9858C106.29 52.943 106.535 52.904 106.79 52.8836C111.622 52.4758 115.902 56.3885 116.342 61.6223C116.783 66.856 113.221 71.4283 108.387 71.8408C108.137 71.8612 107.889 71.864 107.643 71.8621C107.418 74.531 106.997 77.1797 106.384 79.7871C106.614 79.88 106.843 79.9784 107.069 80.0936C111.476 82.3584 113.398 88.0334 111.364 92.7692C109.329 97.5051 104.105 99.5088 99.6979 97.2449C99.4675 97.126 99.2482 96.9932 99.0317 96.8566C97.6026 99.0164 96.0087 101.062 94.2642 102.977C94.4249 103.186 94.5829 103.397 94.7287 103.627C97.5274 107.956 96.5815 113.871 92.6149 116.841C88.6483 119.811 83.1643 118.708 80.3657 114.38C80.2217 114.158 80.0953 113.929 79.9708 113.7C77.7177 114.786 75.3773 115.681 72.9742 116.375C73.0169 116.639 73.0559 116.903 73.0792 117.175C73.5205 122.408 69.9581 126.981 65.1236 127.388C60.2892 127.795 56.0178 123.883 55.5718 118.649C55.5486 118.378 55.543 118.109 55.5421 117.843C53.0566 117.56 50.5993 117.07 48.1961 116.376C48.1124 116.623 48.0251 116.869 47.9173 117.112C45.8815 121.849 40.6587 123.851 36.2516 121.587C31.8446 119.323 29.9212 113.648 31.957 108.912C32.0629 108.665 32.1828 108.429 32.3064 108.196C30.2663 106.601 28.3527 104.85 26.5827 102.96C26.3969 103.131 26.1981 103.298 25.9908 103.453C22.0242 106.426 16.5403 105.321 13.7407 100.992C10.9411 96.6634 11.8879 90.7469 15.8546 87.777C16.0581 87.6256 16.2671 87.4909 16.478 87.3599C15.4372 84.892 14.5791 82.351 13.9108 79.7573C13.6627 79.801 13.4183 79.84 13.1674 79.8614ZM62.8778 100.782C80.4307 99.3044 93.3629 82.7021 91.7619 63.7003C90.161 44.6986 74.6337 30.492 57.0808 31.9709C39.5279 33.4498 26.592 50.0503 28.193 69.0567C29.7939 88.0631 45.3166 102.26 62.8778 100.782Z" fill="#D8DEE8"/>
<path d="M99.2188 60.1843V104.96C99.2188 106.446 98.2022 107.627 96.9516 107.596L22.9601 105.785C21.8219 105.757 20.9002 104.587 20.9002 103.173V60.5457L99.2188 60.1843Z" fill="white"/>
<path d="M22.9601 55.1168L96.9516 54.5186C98.2022 54.5083 99.2188 55.7048 99.2188 57.1921V61.7802L20.9002 62.0645V57.6984C20.9002 56.2808 21.8219 55.1224 22.9601 55.1168Z" fill="url(#paint7_linear_1525_19570)"/>
<path d="M80.7383 83.8272L76.6026 66.4919C70.3679 68.9072 65.8791 75.8995 65.8456 84.1672L80.7383 83.8272Z" fill="url(#paint8_linear_1525_19570)"/>
<path d="M69.6784 85.293C69.9089 89.2355 71.4819 92.7535 73.8541 95.1827L80.3379 85.0413L69.6784 85.293Z" fill="#F4F7FA"/>
<path d="M81.6622 83.241C84.171 80.3826 87.2103 76.9241 89.6289 74.1493C87.4835 71.7043 84.5891 70.2032 81.4141 70.1985C80.4711 70.1966 79.5325 70.3286 78.6266 70.5905L81.6622 83.241Z" fill="#F4F7FA"/>
<path d="M82.187 84.3324L91.3234 92.4664C92.6056 90.2099 93.3555 87.4788 93.3555 84.5294C93.3555 80.8925 92.2163 77.5622 90.3422 75.0336C89.672 75.8009 88.9286 76.6512 88.1122 77.5845C85.6416 80.4029 83.1654 83.2195 82.187 84.3324Z" fill="#F4F7FA"/>
<path d="M81.926 85.6088L82.1016 98.6039C85.572 98.4339 88.6568 96.4673 90.7168 93.4445L81.926 85.6088Z" fill="#F4F7FA"/>
<path d="M80.9149 86.1494L74.6533 95.936C76.4791 97.5059 78.6895 98.4795 81.084 98.6039L80.9149 86.1494Z" fill="#F4F7FA"/>
<path d="M26.2516 74.4102L63.748 74.5718V70.2011L26.2516 70.1426V74.4102Z" fill="#D8DEE8"/>
<path d="M26.2516 82.1337L63.748 82.4811V78.1104L26.2516 77.8661V82.1337Z" fill="#D8DEE8"/>
<path d="M26.2516 89.857L63.748 90.3893V86.0185L26.2516 85.5894V89.857Z" fill="#D8DEE8"/>
<path d="M26.2516 97.5803L63.748 98.2984V93.9277L26.2516 93.3118V97.5803Z" fill="#D8DEE8"/>
<path d="M23.9228 58.6907C23.9228 59.3494 24.3725 59.8807 24.9263 59.8779C25.4801 59.8751 25.9316 59.3382 25.9316 58.6786C25.9316 58.0191 25.481 57.4877 24.9263 57.4905C24.3716 57.4933 23.9228 58.0321 23.9228 58.6907Z" fill="white"/>
<path d="M177.027 157.293V211.568C177.027 213.37 175.769 214.755 174.22 214.662L83.175 209.201C81.7812 209.117 80.656 207.669 80.656 205.964V154.631L177.027 157.293Z" fill="white"/>
<path d="M83.175 148.174L174.22 150.34C175.769 150.378 177.027 151.868 177.027 153.67V159.231L80.656 156.464V151.204C80.656 149.496 81.7831 148.142 83.175 148.174Z" fill="url(#paint9_linear_1525_19570)"/>
<path d="M90.451 200.323L166.205 204.45V167.446L90.451 164.905V200.323Z" fill="#F4F7FA"/>
<path d="M90.4518 200.324L166.201 204.45V180.662C163.722 196.715 161.082 200.164 159.093 200.234C156.294 200.332 154.788 193.737 150.559 193.359C146.363 192.983 144.947 199.235 141.806 198.858C135.839 198.141 134.217 174.682 129.383 174.333C125.545 174.055 122.95 188.613 119.571 187.878C117.102 187.341 116.505 179.131 114.636 179.136C112.942 179.142 112.871 185.892 110.641 186.417C107.376 187.187 104.202 173.467 99.7044 173.199C97.2152 173.051 94.1164 177.013 90.4462 190.783L90.4518 200.324Z" fill="url(#paint10_linear_1525_19570)"/>
<path d="M83.7332 152.364C83.7332 153.162 84.2907 153.824 84.9746 153.842C85.6585 153.859 86.2188 153.228 86.2188 152.429C86.2188 151.63 85.6613 150.967 84.9746 150.95C84.288 150.932 83.7332 151.565 83.7332 152.364Z" fill="white"/>
<path d="M253.045 57.337V135.151C253.045 137.734 251.165 139.796 248.851 139.757L115.875 137.486C113.886 137.452 112.278 135.489 112.278 133.103V61.1949L253.045 57.337Z" fill="white"/>
<path d="M115.875 51.9491L248.851 47.5979C251.165 47.5217 253.045 49.5543 253.045 52.1377V60.1119L112.276 63.7589V56.3895C112.278 54.0021 113.889 52.0142 115.875 51.9491Z" fill="url(#paint11_linear_1525_19570)"/>
<path d="M116.204 57.9489C116.204 59.0915 117.033 59.9926 118.056 59.9656C119.079 59.9387 119.914 58.9846 119.914 57.8402C119.914 56.6957 119.083 55.7965 118.056 55.8234C117.028 55.8503 116.204 56.8062 116.204 57.9489Z" fill="white"/>
<path d="M224.293 129.271L234.77 129.392V71.5649L224.293 71.774V129.271Z" fill="#F4F7FA"/>
<path d="M224.293 129.271L234.77 129.393V101.937L224.293 101.973V129.271Z" fill="url(#paint12_linear_1525_19570)"/>
<path d="M209.914 129.104L220.225 129.224V71.8547L209.914 72.06V129.104Z" fill="#F4F7FA"/>
<path d="M209.914 129.104L220.225 129.224V115.605L209.914 115.563V129.104Z" fill="url(#paint13_linear_1525_19570)"/>
<path d="M195.76 128.941L205.91 129.059V72.1399L195.76 72.3424V128.941Z" fill="#F4F7FA"/>
<path d="M195.76 128.941L205.91 129.059V121.965L195.76 121.887V128.941Z" fill="url(#paint14_linear_1525_19570)"/>
<path d="M181.826 128.78L191.82 128.895V72.4214L181.826 72.6202V128.78Z" fill="#F4F7FA"/>
<path d="M181.826 128.78L191.82 128.895V84.6548L181.826 84.7858V128.78Z" fill="url(#paint15_linear_1525_19570)"/>
<path d="M168.106 128.621L177.945 128.736V72.6973L168.106 72.8933V128.621Z" fill="#F4F7FA"/>
<path d="M168.106 128.621L177.945 128.736V89.8245L168.106 89.9266V128.621Z" fill="url(#paint16_linear_1525_19570)"/>
<path d="M154.595 128.465L164.285 128.578V72.9695L154.595 73.1627V128.465Z" fill="#F4F7FA"/>
<path d="M154.595 128.465L164.285 128.578V81.0552L154.595 81.2038V128.465Z" fill="url(#paint17_linear_1525_19570)"/>
<path d="M141.289 128.311L150.832 128.422V73.238L141.289 73.4285V128.311Z" fill="#F4F7FA"/>
<path d="M141.289 128.311L150.832 128.422V94.5259L141.289 94.6002V128.311Z" fill="url(#paint18_linear_1525_19570)"/>
<path d="M128.184 128.16L137.584 128.268V73.5017L128.184 73.6894V128.16Z" fill="#F4F7FA"/>
<path d="M128.184 128.16L137.584 128.268V109.255L128.184 109.249V128.16Z" fill="url(#paint19_linear_1525_19570)"/>
<path d="M258.207 163.558V208.731C258.207 210.23 257.225 211.391 256.013 211.323L184.246 207.313C183.14 207.251 182.243 206.041 182.243 204.609V161.493L258.207 163.558Z" fill="white"/>
<path d="M184.246 156.067L256.013 157.772C257.221 157.801 258.207 159.039 258.207 160.539V165.168L182.243 163.032V158.608C182.243 157.18 183.14 156.04 184.246 156.067Z" fill="url(#paint20_linear_1525_19570)"/>
<path d="M185.697 159.534C185.697 160.199 186.132 160.749 186.668 160.764C187.204 160.778 187.641 160.25 187.641 159.584C187.641 158.918 187.205 158.368 186.668 158.355C186.131 158.342 185.697 158.873 185.697 159.534Z" fill="white"/>
<path d="M246.657 185.198C245.991 183.612 244.742 182.452 243.275 182.181L243.172 174.458C247.344 174.8 250.915 178.138 252.508 182.738L246.657 185.198Z" fill="url(#paint21_linear_1525_19570)"/>
<path d="M242.102 182.16C240.119 182.454 238.571 184.417 238.385 186.925L232.261 186.984C232.339 180.157 236.59 174.739 241.996 174.443L242.102 182.16Z" fill="#D8DEE8"/>
<path d="M238.436 188.387C238.796 190.975 240.592 193.011 242.76 193.11C243.383 193.137 244.002 193.001 244.556 192.715L247.82 199.45C246.315 200.413 244.548 200.884 242.764 200.799C237.291 200.525 232.822 195.106 232.314 188.444L238.436 188.387Z" fill="#D8DEE8"/>
<path d="M248.826 198.724L245.557 191.987C246.544 191.022 247.174 189.517 247.174 187.801C247.174 187.397 247.138 186.992 247.067 186.594L252.921 184.139C253.235 185.424 253.394 186.743 253.393 188.066C253.393 192.568 251.583 196.463 248.826 198.724Z" fill="#D8DEE8"/>
<path d="M223.861 184.275C223.21 182.713 221.998 181.568 220.57 181.302L220.471 173.685C224.53 174.019 227.997 177.308 229.551 181.846L223.861 184.275Z" fill="#D8DEE8"/>
<path d="M219.43 181.282C217.502 181.573 215.998 183.511 215.819 185.984L209.86 186.045C209.936 179.312 214.072 173.969 219.33 173.67L219.43 181.282Z" fill="url(#paint22_linear_1525_19570)"/>
<path d="M215.865 187.426C216.215 189.978 217.963 191.985 220.071 192.081C220.678 192.108 221.281 191.973 221.818 191.691L224.994 198.331C223.533 199.281 221.81 199.748 220.07 199.665C214.745 199.399 210.397 194.057 209.904 187.482L215.865 187.426Z" fill="#D8DEE8"/>
<path d="M225.973 197.616L222.788 190.973C223.753 190.02 224.368 188.536 224.368 186.848C224.368 186.448 224.333 186.049 224.264 185.655L229.955 183.225C230.261 184.494 230.415 185.794 230.414 187.098C230.414 191.54 228.655 195.383 225.973 197.616Z" fill="#D8DEE8"/>
<path d="M201.684 183.379C201.054 181.837 199.871 180.709 198.483 180.448L198.39 172.934C202.34 173.262 205.719 176.507 207.227 180.98L201.684 183.379Z" fill="#D8DEE8"/>
<path d="M197.373 180.428C195.497 180.717 194.034 182.629 193.859 185.073L188.06 185.136C188.133 178.494 192.159 173.217 197.276 172.923L197.373 180.428Z" fill="#D8DEE8"/>
<path d="M193.902 186.491C194.243 189.009 195.946 190.988 197.99 191.081C198.582 191.107 199.169 190.974 199.691 190.694L202.781 197.242C201.365 198.18 199.687 198.642 197.99 198.562C192.809 198.303 188.577 193.036 188.098 186.55L193.902 186.491Z" fill="#D8DEE8"/>
<path d="M203.739 196.536L200.646 189.986C201.575 189.045 202.176 187.581 202.176 185.912C202.176 185.517 202.142 185.123 202.075 184.734L207.615 182.339C207.912 183.591 208.062 184.873 208.061 186.159C208.059 190.542 206.347 194.333 203.739 196.536Z" fill="url(#paint23_linear_1525_19570)"/>
</g>
<defs>
<linearGradient id="paint0_linear_1525_19570" x1="1.68657" y1="25.7631" x2="329.033" y2="58.2169" gradientUnits="userSpaceOnUse">
<stop stop-color="#7C4EAB"/>
<stop offset="1" stop-color="#DD51D4"/>
</linearGradient>
<linearGradient id="paint1_linear_1525_19570" x1="152.166" y1="246.781" x2="170.655" y2="254.548" gradientUnits="userSpaceOnUse">
<stop stop-color="#40447E"/>
<stop offset="1" stop-color="#3C3B6B"/>
</linearGradient>
<linearGradient id="paint2_linear_1525_19570" x1="-230699" y1="261614" x2="-201362" y2="280081" gradientUnits="userSpaceOnUse">
<stop stop-color="#40447E"/>
<stop offset="1" stop-color="#3C3B6B"/>
</linearGradient>
<linearGradient id="paint3_linear_1525_19570" x1="-77054.5" y1="266460" x2="-406545" y2="266460" gradientUnits="userSpaceOnUse">
<stop stop-color="#40447E"/>
<stop offset="1" stop-color="#3C3B6B"/>
</linearGradient>
<linearGradient id="paint4_linear_1525_19570" x1="94.5321" y1="137.433" x2="289.1" y2="168.154" gradientUnits="userSpaceOnUse">
<stop stop-color="#7C4EAB"/>
<stop offset="1" stop-color="#DD51D4"/>
</linearGradient>
<linearGradient id="paint5_linear_1525_19570" x1="-116214" y1="67793.7" x2="-863973" y2="67793.7" gradientUnits="userSpaceOnUse">
<stop stop-color="#40447E"/>
<stop offset="1" stop-color="#3C3B6B"/>
</linearGradient>
<linearGradient id="paint6_linear_1525_19570" x1="-66818.6" y1="39492.8" x2="-468241" y2="39492.8" gradientUnits="userSpaceOnUse">
<stop stop-color="#40447E"/>
<stop offset="1" stop-color="#3C3B6B"/>
</linearGradient>
<linearGradient id="paint7_linear_1525_19570" x1="-211467" y1="6619.22" x2="-211097" y2="12898.6" gradientUnits="userSpaceOnUse">
<stop stop-color="#FFC444"/>
<stop offset="1" stop-color="#F36F56"/>
</linearGradient>
<linearGradient id="paint8_linear_1525_19570" x1="-116045" y1="19049.9" x2="-112461" y2="29729.3" gradientUnits="userSpaceOnUse">
<stop stop-color="#FFC444"/>
<stop offset="1" stop-color="#F36F56"/>
</linearGradient>
<linearGradient id="paint9_linear_1525_19570" x1="120.632" y1="141.119" x2="164.988" y2="213.648" gradientUnits="userSpaceOnUse">
<stop stop-color="#AA80F9"/>
<stop offset="1" stop-color="#6165D7"/>
</linearGradient>
<linearGradient id="paint10_linear_1525_19570" x1="-140207" y1="69579.8" x2="-141433" y2="86384.6" gradientUnits="userSpaceOnUse">
<stop stop-color="#AA80F9"/>
<stop offset="1" stop-color="#6165D7"/>
</linearGradient>
<linearGradient id="paint11_linear_1525_19570" x1="171.63" y1="39.2066" x2="231.246" y2="136.688" gradientUnits="userSpaceOnUse">
<stop stop-color="#FF9085"/>
<stop offset="1" stop-color="#FB6FBB"/>
</linearGradient>
<linearGradient id="paint12_linear_1525_19570" x1="-5025.41" y1="28566.2" x2="2338.02" y2="37334.5" gradientUnits="userSpaceOnUse">
<stop stop-color="#FF9085"/>
<stop offset="1" stop-color="#FB6FBB"/>
</linearGradient>
<linearGradient id="paint13_linear_1525_19570" x1="-6253.82" y1="16544.4" x2="-4778.55" y2="20019.1" gradientUnits="userSpaceOnUse">
<stop stop-color="#FF9085"/>
<stop offset="1" stop-color="#FB6FBB"/>
</linearGradient>
<linearGradient id="paint14_linear_1525_19570" x1="-7578.59" y1="9301.93" x2="-7293.72" y2="10560.2" gradientUnits="userSpaceOnUse">
<stop stop-color="#FF9085"/>
<stop offset="1" stop-color="#FB6FBB"/>
</linearGradient>
<linearGradient id="paint15_linear_1525_19570" x1="-9777.2" y1="36782.6" x2="7665.61" y2="49079.3" gradientUnits="userSpaceOnUse">
<stop stop-color="#FF9085"/>
<stop offset="1" stop-color="#FB6FBB"/>
</linearGradient>
<linearGradient id="paint16_linear_1525_19570" x1="-10983.4" y1="34821.2" x2="3067" y2="45908.3" gradientUnits="userSpaceOnUse">
<stop stop-color="#FF9085"/>
<stop offset="1" stop-color="#FB6FBB"/>
</linearGradient>
<linearGradient id="paint17_linear_1525_19570" x1="-12423.7" y1="37484.7" x2="6803.04" y2="49719.6" gradientUnits="userSpaceOnUse">
<stop stop-color="#FF9085"/>
<stop offset="1" stop-color="#FB6FBB"/>
</linearGradient>
<linearGradient id="paint18_linear_1525_19570" x1="-13338.7" y1="32311.8" x2="-2370.42" y2="41948.6" gradientUnits="userSpaceOnUse">
<stop stop-color="#FF9085"/>
<stop offset="1" stop-color="#FB6FBB"/>
</linearGradient>
<linearGradient id="paint19_linear_1525_19570" x1="-14181.1" y1="21584.5" x2="-10796.3" y2="26804.9" gradientUnits="userSpaceOnUse">
<stop stop-color="#FF9085"/>
<stop offset="1" stop-color="#FB6FBB"/>
</linearGradient>
<linearGradient id="paint20_linear_1525_19570" x1="213.695" y1="150.651" x2="248.894" y2="208.206" gradientUnits="userSpaceOnUse">
<stop stop-color="#E38DDD"/>
<stop offset="1" stop-color="#9571F6"/>
</linearGradient>
<linearGradient id="paint21_linear_1525_19570" x1="-6005.78" y1="23923.2" x2="-4235.14" y2="26366.4" gradientUnits="userSpaceOnUse">
<stop stop-color="#FF9085"/>
<stop offset="1" stop-color="#FB6FBB"/>
</linearGradient>
<linearGradient id="paint22_linear_1525_19570" x1="-9000.58" y1="27682.8" x2="-9454.91" y2="34408.4" gradientUnits="userSpaceOnUse">
<stop stop-color="#FFC444"/>
<stop offset="1" stop-color="#F36F56"/>
</linearGradient>
<linearGradient id="paint23_linear_1525_19570" x1="-7841.15" y1="32783.9" x2="-6729.6" y2="39372.2" gradientUnits="userSpaceOnUse">
<stop stop-color="#AA80F9"/>
<stop offset="1" stop-color="#6165D7"/>
</linearGradient>
<clipPath id="clip0_1525_19570">
<rect width="270" height="270" fill="white" transform="matrix(-1 0 0 1 270 0)"/>
</clipPath>
</defs>
</svg>
