<svg width="60" height="60" viewBox="0 0 60 60" fill="none" xmlns="http://www.w3.org/2000/svg">
<rect width="60" height="60" rx="15" fill="#CF51CE"/>
<g clip-path="url(#clip0_1525_19661)">
<path d="M13.5488 43.4544H30.6478V45.3543C30.6478 46.4032 31.4988 47.2542 32.5477 47.2542H35.0809C35.635 47.2542 36.1595 47.0068 36.5157 46.5912C36.5256 46.5912 36.5355 46.5912 36.5454 46.5813C37.0105 47.0167 37.6141 47.2542 38.2474 47.2542H45.8469C46.8958 47.2542 47.7468 46.4032 47.7468 45.3543C47.7468 45.0277 47.6578 44.7012 47.4895 44.4241C48.3504 43.8898 48.6374 42.7716 48.1228 41.8909C48.5978 41.5941 48.9145 41.0993 48.9936 40.5452C49.0728 39.991 48.8947 39.427 48.5186 39.0213C49.0233 38.4672 49.1519 37.6657 48.8452 36.9829C48.5384 36.3001 47.8557 35.8548 47.1036 35.8548H45.2037V16.2226C45.2037 14.8274 44.0658 13.6895 42.6705 13.6895H13.5488C12.1536 13.6895 11.0156 14.8274 11.0156 16.2226V40.9212C11.0156 42.3164 12.1536 43.4544 13.5488 43.4544ZM35.0809 45.9876H32.5477C32.2014 45.9876 31.9144 45.7006 31.9144 45.3543V39.6546C31.9144 39.3083 32.2014 39.0213 32.5477 39.0213H35.0809C35.4272 39.0213 35.7142 39.3083 35.7142 39.6546V45.3543C35.7142 45.7006 35.4272 45.9876 35.0809 45.9876ZM47.7468 37.7547C47.7468 38.1011 47.4599 38.388 47.1135 38.388H45.2136C44.8673 38.388 44.5803 38.675 44.5803 39.0213C44.5803 39.3676 44.8673 39.6546 45.2136 39.6546H47.1135C47.4599 39.6546 47.7468 39.9416 47.7468 40.2879C47.7468 40.6342 47.4599 40.9212 47.1135 40.9212H45.2136C44.8673 40.9212 44.5803 41.2082 44.5803 41.5545C44.5803 41.9008 44.8673 42.1878 45.2136 42.1878H46.4802C46.8266 42.1878 47.1135 42.4748 47.1135 42.8211C47.1135 43.1674 46.8266 43.4544 46.4802 43.4544H45.2136C44.8673 43.4544 44.5803 43.7413 44.5803 44.0877C44.5803 44.434 44.8673 44.721 45.2136 44.721H45.8469C46.1933 44.721 46.4802 45.0079 46.4802 45.3543C46.4802 45.7006 46.1933 45.9876 45.8469 45.9876H38.2474C37.5448 45.9876 36.9808 45.4235 36.9808 44.721V39.3874C37.7724 38.8927 38.3661 38.1307 38.663 37.2501C39.227 35.558 39.514 33.7867 39.514 32.0056C39.514 31.9165 39.5733 31.8473 39.6525 31.8176C39.8702 31.778 40.4342 31.679 40.9686 32.7279C41.2654 33.3315 41.4139 33.9945 41.404 34.6773V36.4881C41.404 36.8345 41.6909 37.1214 42.0373 37.1214H47.1036C47.4599 37.1214 47.7468 37.4084 47.7468 37.7547ZM42.6804 35.8548V34.6773C42.6903 33.8065 42.4924 32.9357 42.1065 32.154C41.4831 30.9369 40.5332 30.3729 39.4348 30.5708C38.7421 30.6994 38.2474 31.303 38.2474 32.0056C38.2474 33.6482 37.9802 35.2908 37.4656 36.8543C37.2677 37.4381 36.8818 37.9328 36.3673 38.2792C36.0209 37.9526 35.5559 37.7745 35.0809 37.7646H32.5477C31.4988 37.7646 30.6478 38.6156 30.6478 39.6645V42.1977H13.5488C12.8462 42.1977 12.2822 41.6337 12.2822 40.9311V20.0224H43.947V35.8548H42.6804ZM13.5488 14.956H42.6804C43.383 14.956 43.947 15.5201 43.947 16.2226V18.7558H12.2822V16.2226C12.2822 15.5201 12.8462 14.956 13.5488 14.956Z" fill="white"/>
<path fill-rule="evenodd" clip-rule="evenodd" d="M14.8155 16.856C14.8155 17.2023 14.5285 17.4893 14.1822 17.4893C13.8358 17.4893 13.5488 17.2023 13.5488 16.856C13.5488 16.5096 13.8358 16.2227 14.1822 16.2227C14.5285 16.2227 14.8155 16.5096 14.8155 16.856Z" fill="white"/>
<path fill-rule="evenodd" clip-rule="evenodd" d="M17.3487 16.856C17.3487 17.2023 17.0617 17.4893 16.7154 17.4893C16.369 17.4893 16.082 17.2023 16.082 16.856C16.082 16.5096 16.369 16.2227 16.7154 16.2227C17.0617 16.2227 17.3487 16.5096 17.3487 16.856Z" fill="white"/>
<path fill-rule="evenodd" clip-rule="evenodd" d="M19.8819 16.856C19.8819 17.2023 19.5949 17.4893 19.2486 17.4893C18.9022 17.4893 18.6152 17.2023 18.6152 16.856C18.6152 16.5096 18.9022 16.2227 19.2486 16.2227C19.5949 16.2227 19.8819 16.5096 19.8819 16.856Z" fill="white"/>
<path d="M16.0816 33.3219H26.215C27.2639 33.3219 28.115 32.4708 28.115 31.4219V23.8219C28.115 22.7729 27.2639 21.9219 26.215 21.9219H16.0816C15.0327 21.9219 14.1816 22.7729 14.1816 23.8219V31.4219C14.1816 32.4708 15.0327 33.3219 16.0816 33.3219ZM17.6353 32.0552L20.5645 27.4438L21.9697 29.2052L20.1686 32.0552H17.6353ZM26.215 32.0552H21.6728L25.0077 26.8104L26.8483 29.1161V31.4318C26.8483 31.7682 26.5613 32.0552 26.215 32.0552ZM15.4483 23.8219C15.4483 23.4755 15.7353 23.1885 16.0816 23.1885H26.215C26.5613 23.1885 26.8483 23.4755 26.8483 23.8219V27.0875L25.4431 25.326C25.3145 25.1677 25.1165 25.0786 24.9186 25.0885C24.7108 25.0984 24.5327 25.2073 24.4139 25.3854L22.702 28.0771L21.0098 25.9594C20.8811 25.801 20.6832 25.712 20.4853 25.7219C20.2775 25.7318 20.0993 25.8406 19.9806 26.0188L16.141 32.0552H16.0816C15.7353 32.0552 15.4483 31.7682 15.4483 31.4219V23.8219V23.8219Z" fill="white"/>
<path fill-rule="evenodd" clip-rule="evenodd" d="M17.9815 25.0884C17.9815 25.4348 17.6945 25.7217 17.3482 25.7217C17.0018 25.7217 16.7148 25.4348 16.7148 25.0884C16.7148 24.7421 17.0018 24.4551 17.3482 24.4551C17.6945 24.4551 17.9815 24.7421 17.9815 25.0884Z" fill="white"/>
<path fill-rule="evenodd" clip-rule="evenodd" d="M41.4137 22.5547H30.647C30.3007 22.5547 30.0137 22.8417 30.0137 23.188C30.0137 23.5344 30.3007 23.8214 30.647 23.8214H41.4137C41.76 23.8214 42.047 23.5344 42.047 23.188C42.047 22.8417 41.76 22.5547 41.4137 22.5547Z" fill="white"/>
<path fill-rule="evenodd" clip-rule="evenodd" d="M41.4137 25.0889H30.647C30.3007 25.0889 30.0137 25.3758 30.0137 25.7222C30.0137 26.0686 30.3007 26.3555 30.647 26.3555H41.4137C41.76 26.3555 42.047 26.0686 42.047 25.7222C42.047 25.3758 41.76 25.0889 41.4137 25.0889Z" fill="white"/>
<path fill-rule="evenodd" clip-rule="evenodd" d="M41.4137 27.6211H30.647C30.3007 27.6211 30.0137 27.9081 30.0137 28.2544C30.0137 28.6008 30.3007 28.8878 30.647 28.8878H41.4137C41.76 28.8878 42.047 28.6008 42.047 28.2544C42.047 27.9081 41.76 27.6211 41.4137 27.6211Z" fill="white"/>
<path fill-rule="evenodd" clip-rule="evenodd" d="M36.347 30.1553H30.647C30.3007 30.1553 30.0137 30.4423 30.0137 30.7886C30.0137 31.135 30.3007 31.4219 30.647 31.4219H36.347C36.6934 31.4219 36.9803 31.135 36.9803 30.7886C36.9803 30.4423 36.6934 30.1553 36.347 30.1553Z" fill="white"/>
<path fill-rule="evenodd" clip-rule="evenodd" d="M29.3816 35.8545H14.815C14.4686 35.8545 14.1816 36.1415 14.1816 36.4878C14.1816 36.8342 14.4686 37.1212 14.815 37.1212H29.3816C29.728 37.1212 30.015 36.8342 30.015 36.4878C30.015 36.1415 29.728 35.8545 29.3816 35.8545Z" fill="white"/>
<path fill-rule="evenodd" clip-rule="evenodd" d="M27.4816 38.3867H14.815C14.4686 38.3867 14.1816 38.6737 14.1816 39.0201C14.1816 39.3664 14.4686 39.6534 14.815 39.6534H27.4816C27.828 39.6534 28.115 39.3664 28.115 39.0201C28.115 38.6737 27.828 38.3867 27.4816 38.3867Z" fill="white"/>
</g>
<defs>
<clipPath id="clip0_1525_19661">
<rect width="37.9978" height="37.9978" fill="white" transform="translate(11.0156 11.3135)"/>
</clipPath>
</defs>
</svg>
