<svg width="60" height="60" viewBox="0 0 60 60" fill="none" xmlns="http://www.w3.org/2000/svg">
<rect width="60" height="60" rx="15" fill="#CF51CE"/>
<g clip-path="url(#clip0_1525_19690)">
<path d="M29.5523 49.258C28.8476 49.0954 28.1972 48.8786 27.7635 48.2823C27.4925 47.9029 27.2757 47.4151 27.0589 46.9814C26.9505 46.7646 26.8963 46.6562 26.6794 46.602C25.2701 46.331 23.8608 45.8431 22.5599 45.1926C20.5001 44.1628 18.7113 42.7534 17.2477 40.9647C17.0851 40.7478 16.9225 40.7478 16.7057 40.802C15.3506 41.2899 13.887 40.6936 13.1824 39.4469C12.4777 38.146 12.7487 36.574 13.9412 35.7068C14.1581 35.5441 14.2123 35.3815 14.1039 35.1105C13.1282 31.9124 13.1282 28.6601 14.1039 25.462C14.1581 25.2452 14.1581 25.0826 13.9412 24.9199C12.7487 24.0527 12.4235 22.4807 13.1282 21.1798C13.8328 19.8789 15.2964 19.3368 16.7057 19.8247C16.9767 19.9331 17.0851 19.8247 17.2477 19.662C18.7113 17.8733 20.5001 16.4639 22.5599 15.434C23.8066 14.7836 25.1617 14.3499 26.5168 14.0789C26.8421 14.0247 27.0589 13.9163 27.1673 13.4827C27.3841 12.1817 28.6308 11.3145 29.986 11.3145C31.3411 11.3145 32.5336 12.2901 32.8046 13.5911C32.8588 13.9163 33.0214 14.0247 33.2925 14.0789C35.5149 14.5126 37.5205 15.3798 39.3634 16.6808C40.6102 17.548 41.6943 18.5237 42.6157 19.662C42.7784 19.8789 42.941 19.9331 43.212 19.8247C44.5129 19.3368 46.0307 19.9331 46.7353 21.1256C47.44 22.4265 47.169 23.9984 46.0307 24.8657C45.8138 25.0283 45.7596 25.191 45.8138 25.462C46.7895 28.6601 46.7895 31.9124 45.8138 35.1105C45.7596 35.3273 45.7596 35.4899 45.9765 35.6525C47.0606 36.4656 47.44 37.9834 46.8979 39.2301C46.3017 40.531 44.8924 41.2899 43.5914 40.9104C42.9952 40.7478 42.7242 40.9104 42.3447 41.3441C39.9597 44.0543 36.9242 45.7889 33.4009 46.5478C33.0756 46.602 32.8588 46.7646 32.8046 47.144C32.4794 48.2823 31.7205 48.9328 30.6364 49.258C30.528 49.258 30.4738 49.3122 30.3654 49.3122C30.0402 49.258 29.8233 49.258 29.5523 49.258ZM29.9317 21.9929C25.3785 21.9929 21.6384 25.733 21.6384 30.2862C21.6384 34.8395 25.3785 38.5796 29.9317 38.5796C34.485 38.5796 38.2251 34.8395 38.2251 30.2862C38.2251 25.733 34.485 21.9929 29.9317 21.9929ZM27.1131 15.163C23.3729 15.8677 20.3374 17.7107 17.9524 20.6377C18.6029 21.4508 18.8197 22.3181 18.6029 23.2938C18.6029 23.4022 18.7113 23.5106 18.7655 23.5648C19.4702 23.9442 20.1748 24.3237 20.8795 24.7031C21.2047 24.8657 21.53 25.0826 21.8552 25.2452C23.8066 22.3723 26.4626 20.8003 29.9317 20.8003C33.4009 20.8003 36.0027 22.4265 37.9541 25.2452C38.8756 24.7573 39.7429 24.2695 40.6102 23.7816C41.0438 23.5648 41.3148 23.348 41.2064 22.7517C41.0438 21.9387 41.369 21.234 41.9111 20.5835C39.5261 17.6565 36.4906 15.8135 32.7504 15.1088C32.371 16.2471 31.6121 16.8976 30.4738 17.1686C30.4738 17.9817 30.4738 18.7948 30.4738 19.5536C30.0944 19.5536 29.7149 19.5536 29.2813 19.5536C29.2813 18.7406 29.2813 17.9275 29.2813 17.1686C28.2514 16.8976 27.4925 16.2471 27.1131 15.163ZM17.9524 39.9348C20.3916 42.8618 23.3729 44.7048 27.1131 45.4095C27.4925 44.3254 28.2514 43.6207 29.3897 43.3497C29.3897 42.5366 29.3897 41.7235 29.3897 40.9647C29.8233 40.9647 30.1486 40.9647 30.5822 40.9647C30.5822 41.7777 30.5822 42.5908 30.5822 43.3497C31.7205 43.6207 32.4252 44.3254 32.8046 45.4095C36.5448 44.6506 39.5803 42.8618 41.9653 39.9348C41.2606 38.8507 41.2064 38.5254 41.3148 37.2787C41.3148 37.1703 41.2606 37.0619 41.2064 37.0077C40.1765 36.4114 39.0924 35.8694 38.0083 35.2731C36.0569 38.146 33.4009 39.7179 29.9317 39.7179C26.4626 39.7179 23.8066 38.0918 21.8552 35.2731C20.7711 35.8694 19.7412 36.4114 18.7113 37.0077C18.6571 37.0619 18.5487 37.1703 18.6029 37.2787C18.8197 38.3086 18.5487 39.1759 17.9524 39.9348ZM21.3131 34.2432C20.1748 31.5872 20.1748 28.9311 21.3131 26.2751C20.1748 25.6788 19.0907 25.0283 17.9524 24.4321C17.1935 25.2452 16.3263 25.5704 15.2422 25.462C14.2665 28.6601 14.2665 31.804 15.2422 35.0021C16.3263 34.8937 17.1935 35.2731 17.9524 36.032C19.0907 35.4899 20.1748 34.8937 21.3131 34.2432ZM41.9111 36.0862C42.6157 35.3815 43.4288 34.9479 44.4587 35.0021C44.5129 35.0021 44.6755 34.8395 44.7297 34.7853C45.2718 33.0507 45.4886 31.3161 45.3802 29.4732C45.326 28.118 45.1092 26.8171 44.6213 25.5162C43.5914 25.6246 42.7242 25.2994 42.0195 24.5947C41.9653 24.5405 41.8027 24.5405 41.6943 24.5947C41.2064 24.8657 40.7186 25.1368 40.2849 25.3536C39.7429 25.6788 39.1466 25.9498 38.6046 26.2751C39.7429 28.9311 39.7429 31.5872 38.6046 34.2432C39.6887 34.8937 40.7728 35.4899 41.9111 36.0862ZM29.9317 16.0303C30.9074 16.0303 31.7205 15.2172 31.7205 14.2957C31.7205 13.32 30.9616 12.507 29.986 12.507C29.0103 12.507 28.1972 13.32 28.1972 14.2957C28.143 15.2172 28.9561 16.0303 29.9317 16.0303ZM17.4646 22.5891C17.4646 21.6134 16.6515 20.8003 15.6758 20.8003C14.7001 20.8003 13.887 21.6134 13.887 22.5891C13.887 23.5648 14.7001 24.3237 15.6758 24.3237C16.7057 24.3237 17.4646 23.5106 17.4646 22.5891ZM45.9223 22.5891C45.9223 21.6134 45.1092 20.8003 44.1877 20.8003C43.212 20.8003 42.3989 21.5592 42.3989 22.5349C42.3989 23.5106 43.212 24.3237 44.1877 24.3237C45.1092 24.3779 45.9223 23.5648 45.9223 22.5891ZM17.4646 37.9834C17.4646 37.0077 16.6515 36.1946 15.6758 36.1946C14.7001 36.1946 13.887 37.0077 13.887 37.9834C13.887 38.9591 14.7001 39.7721 15.6758 39.7721C16.7057 39.7721 17.4646 38.9591 17.4646 37.9834ZM45.9223 37.9834C45.9223 37.0077 45.1092 36.1946 44.1877 36.1946C43.212 36.1946 42.3989 36.9535 42.3989 37.9292C42.3989 38.9049 43.212 39.7179 44.1877 39.7179C45.1092 39.7721 45.9223 38.9591 45.9223 37.9834ZM29.9317 44.5422C28.9561 44.5422 28.143 45.3553 28.143 46.2768C28.143 47.2524 28.9561 48.0655 29.9317 48.0655C30.9074 48.0655 31.7205 47.2524 31.7205 46.2768C31.7205 45.3011 30.9074 44.5422 29.9317 44.5422Z" fill="white"/>
<path d="M28.035 29.5809C26.8966 28.551 26.734 27.3042 27.0593 25.949C27.3845 24.5395 28.7939 23.618 30.1491 23.7264C31.7212 23.889 32.7511 25.0816 32.8595 26.6537C32.9137 27.7378 32.6969 28.7136 31.7754 29.5267C31.938 29.6351 32.1006 29.7977 32.2632 29.9062C33.1306 30.4482 34.0521 30.9903 34.9195 31.4782C35.1363 31.5866 35.2447 31.7492 35.1905 32.0203C35.1905 32.5624 35.1905 33.1044 35.1905 33.5923C35.2447 34.297 34.8652 34.7849 34.269 35.0017C33.6727 35.2186 33.0222 35.3812 32.4259 35.4354C30.4744 35.598 28.4687 35.6522 26.5172 35.327C26.1919 35.2728 25.8667 35.1644 25.5414 35.0559C24.8909 34.7849 24.5115 34.297 24.5657 33.5923C24.5657 33.0502 24.5657 32.5082 24.5657 31.9661C24.5657 31.7492 24.6199 31.6408 24.7825 31.5324C25.704 30.9903 26.5714 30.4482 27.4929 29.9062C27.7097 29.8519 27.8724 29.7435 28.035 29.5809ZM29.607 34.4597C30.6912 34.4054 31.4501 34.4054 32.209 34.3512C32.6969 34.297 33.239 34.1886 33.7269 34.0802C33.9979 34.026 34.0521 33.8634 34.0521 33.5923C34.2147 32.725 33.8895 32.1287 33.0222 31.8034C32.9137 31.7492 32.8053 31.695 32.7511 31.6408C32.1006 31.2072 31.4501 30.7193 30.7996 30.2856C30.7454 30.2314 30.5828 30.2314 30.4744 30.2314C30.0407 30.2314 29.6612 30.2314 29.2276 30.2314C29.1192 30.2314 28.9565 30.2314 28.9023 30.2856C28.1976 31.0445 27.2761 31.4782 26.4088 31.9661C25.8667 32.2913 25.5956 32.6166 25.704 33.2671C25.7583 34.026 25.7583 34.026 26.463 34.2428C26.5172 34.2428 26.5172 34.2428 26.5714 34.2428C27.764 34.297 28.8481 34.4054 29.607 34.4597ZM28.1434 26.9789C28.1434 27.1415 28.1434 27.3042 28.1434 27.4668C28.1976 28.3883 28.9565 29.0388 29.8239 29.093C30.6912 29.1472 31.5043 28.551 31.6127 27.6836C31.667 27.1957 31.667 26.7079 31.5585 26.2742C31.2875 25.19 29.9865 24.648 29.0107 25.19C28.4145 25.5695 28.1434 26.22 28.1434 26.9789Z" fill="white"/>
<path d="M30.529 14.8376C30.1495 14.8376 29.7701 14.8376 29.3906 14.8376C29.3906 14.4581 29.3906 14.0787 29.3906 13.6992C29.7701 13.6992 30.1495 13.6992 30.529 13.6992C30.529 14.0787 30.529 14.4581 30.529 14.8376Z" fill="white"/>
<path d="M16.2712 23.1296C15.8917 23.1296 15.5123 23.1296 15.1328 23.1296C15.1328 22.7501 15.1328 22.3707 15.1328 21.9912C15.5123 21.9912 15.8917 21.9912 16.2712 21.9912C16.2712 22.3707 16.2712 22.7501 16.2712 23.1296Z" fill="white"/>
<path d="M44.7302 21.9912C44.7302 22.3707 44.7302 22.7501 44.7302 23.1296C44.3507 23.1296 43.9713 23.1296 43.5918 23.1296C43.5918 22.7501 43.5918 22.3707 43.5918 21.9912C43.9713 21.9912 44.3507 21.9912 44.7302 21.9912Z" fill="white"/>
<path d="M16.2712 38.5788C15.8917 38.5788 15.5123 38.5788 15.1328 38.5788C15.1328 38.1993 15.1328 37.8199 15.1328 37.4404C15.5123 37.4404 15.8917 37.4404 16.2712 37.4404C16.2712 37.8199 16.2712 38.1993 16.2712 38.5788Z" fill="white"/>
<path d="M44.7302 37.4404C44.7302 37.8199 44.7302 38.1993 44.7302 38.5788C44.3507 38.5788 43.9713 38.5788 43.5918 38.5788C43.5918 38.1993 43.5918 37.8199 43.5918 37.4404C43.9713 37.4404 44.3507 37.4404 44.7302 37.4404Z" fill="white"/>
<path d="M30.529 45.7344C30.529 46.1138 30.529 46.4933 30.529 46.8727C30.1495 46.8727 29.7701 46.8727 29.3906 46.8727C29.3906 46.4933 29.3906 46.1138 29.3906 45.7344C29.7701 45.7344 30.0953 45.7344 30.529 45.7344Z" fill="white"/>
</g>
<defs>
<clipPath id="clip0_1525_19690">
<rect width="37.9978" height="37.9978" fill="white" transform="translate(10.9785 11.3135)"/>
</clipPath>
</defs>
</svg>
