<svg width="60" height="60" viewBox="0 0 60 60" fill="none" xmlns="http://www.w3.org/2000/svg">
<rect width="60" height="60" rx="15" fill="#CF51CE"/>
<path d="M21.5641 48.3297C20.8753 48.0236 20.5691 47.5644 20.6457 46.7991C20.6457 46.4164 20.6457 45.9572 20.6457 45.5745C20.4926 45.5745 20.3395 45.5745 20.1865 45.5745C18.3497 45.5745 16.5894 45.5745 14.7526 45.5745C13.8342 45.5745 13.375 45.1153 13.375 44.1969C13.375 43.8143 13.375 43.4316 13.375 43.0489C13.375 42.6663 13.6046 42.4367 13.9107 42.4367C14.2169 42.4367 14.4465 42.6663 14.4465 43.0489C14.4465 43.4316 14.4465 43.8143 14.4465 44.1969C14.4465 44.35 14.523 44.4265 14.6761 44.4265C16.6659 44.4265 18.5793 44.4265 20.6457 44.4265C20.6457 43.202 20.6457 42.054 20.6457 40.906C19.1915 39.9876 18.7323 39.3753 18.5027 37.6916C17.5843 37.6916 16.6659 37.6151 15.8241 37.6916C15.0587 37.7681 14.523 38.61 14.4465 39.4519C14.4465 39.8345 14.4465 40.1407 14.4465 40.5233C14.4465 40.906 14.2169 41.1356 13.9107 41.1356C13.6046 41.1356 13.375 40.906 13.375 40.5233C13.375 40.1407 13.375 39.6815 13.375 39.2988C13.4515 38.3804 13.9107 37.6151 14.6761 37.0793C14.7526 37.0028 14.8291 37.0028 14.9057 36.9263C14.5995 35.9313 14.2169 35.0129 13.9873 34.0945C12.7627 29.1964 13.5281 24.6809 16.3598 20.4716C16.5129 20.242 16.5894 20.0889 16.4363 19.7828C16.0537 19.0175 16.2067 18.0991 16.819 17.4868C17.4313 16.8745 18.2731 16.6449 19.115 17.0276C19.2681 17.1807 19.4211 17.1041 19.5742 16.9511C20.4926 16.3388 21.3345 15.7265 22.2529 15.1143C22.6355 14.8847 22.9417 14.9612 23.0947 15.2673C23.2478 15.5735 23.0947 15.8031 22.7886 16.0327C21.9467 16.6449 21.1049 17.1807 20.263 17.7929C20.1099 17.8695 20.1099 18.0225 20.1865 18.1756C20.4926 18.9409 20.3395 19.7063 19.8038 20.242C19.2681 20.8543 18.5793 21.0839 17.7374 20.8543C17.5078 20.7777 17.4313 20.8543 17.2782 21.0073C15.7475 23.2268 14.8291 25.6759 14.5995 28.4311C14.2934 31.1863 14.7526 33.7884 15.8241 36.314C15.9006 36.5436 16.0537 36.6201 16.3598 36.6201C17.4313 36.6201 18.5027 36.6201 19.4977 36.6201C19.5742 36.314 19.4977 36.1609 19.3446 36.0079C18.4262 35.2425 17.8139 34.3241 17.6609 33.1761C17.6609 32.9465 17.5843 32.87 17.3547 32.7935C15.9771 32.4108 15.5179 30.7271 16.5129 29.6556C16.5894 29.5791 16.6659 29.3495 16.6659 29.1964C16.6659 28.0484 16.6659 26.9769 16.6659 25.8289C16.6659 24.1452 17.7374 22.9207 19.2681 22.6145C19.4977 22.538 19.8038 22.538 20.0334 22.538C21.1814 22.538 22.3294 22.538 23.4774 22.538C24.2427 22.538 25.0081 22.7676 25.6203 23.3033C25.6969 23.3799 25.8499 23.3799 25.9265 23.3799C26.6153 23.0737 27.3041 22.9972 28.0694 22.9972C28.4521 22.9972 28.7582 22.9972 29.1409 22.9972C29.447 22.9972 29.6766 23.2268 29.7531 23.5329C29.7531 23.8391 29.5235 24.0687 29.1409 24.0687C28.6051 24.0687 28.0694 24.0687 27.5337 24.0687C26.1561 24.0687 25.0081 25.1401 24.9315 26.5177C24.855 27.6657 24.9315 28.8137 24.9315 29.9617C24.9315 30.0383 24.9315 30.0383 24.9315 30.1148C25.2377 30.1913 25.2377 30.0383 25.3142 29.8087C25.4673 28.9668 25.7734 28.2015 26.2326 27.5127C26.5387 27.13 26.6918 27.0535 27.151 27.2065C28.6051 27.6657 29.9827 28.0484 31.5134 28.2015C31.8961 28.2015 32.3553 28.2015 32.7379 28.1249C32.9675 28.0484 33.2737 27.8953 33.4267 27.7423C33.7329 27.4361 34.1155 27.4361 34.3451 27.8188C34.7278 28.4311 35.0339 29.1199 35.1104 29.8087C35.1104 29.9617 35.187 30.1913 35.4166 30.1148C35.4166 30.0383 35.4166 29.9617 35.4166 29.8852C35.4166 29.1199 35.4166 28.3545 35.4166 27.5892C35.4166 27.2065 35.34 26.9769 34.8808 26.9769C34.5747 26.9004 34.4216 26.6708 34.4216 26.3647C34.4216 25.7524 34.192 25.2932 33.8094 24.834C33.3502 24.2983 32.7379 24.0687 32.1257 24.0687C31.8961 24.0687 31.6665 24.0687 31.5134 24.0687C31.2073 24.0687 30.9777 23.8391 30.9777 23.5329C30.9777 23.2268 31.2073 22.9972 31.5134 22.9972C32.3553 22.9207 33.1971 23.0737 33.8859 23.4564C34.6512 22.6911 35.5696 22.4615 36.5646 22.538C37.7126 22.538 38.784 22.538 39.932 22.538C41.3862 22.538 42.5342 23.4564 42.9168 24.834C42.9168 24.9105 42.9934 25.0636 43.1464 25.1401C43.6056 25.4463 43.8352 25.9055 43.8352 26.4412C43.8352 27.2831 43.8352 28.2015 43.8352 29.0433C43.8352 29.1964 43.9118 29.426 44.0648 29.5025C45.0598 30.574 44.6006 32.1812 43.223 32.6404C42.9934 32.7169 42.9934 32.7935 42.9168 32.9465C42.6872 34.0945 42.1515 35.0895 41.2331 35.8548C41.08 35.9313 41.08 36.1609 40.927 36.314L41.0035 36.3905C41.5392 36.3905 41.9984 36.3905 42.5342 36.3905C43.0699 36.3905 43.6822 36.3905 44.2179 36.3905C44.524 36.3905 44.6006 36.314 44.7536 36.0844C45.8251 33.5588 46.2078 30.9567 45.9782 28.278C45.7486 25.5993 44.8302 23.1503 43.376 20.9308C43.223 20.7012 43.0699 20.6247 42.8403 20.7012C42.075 20.9308 41.3862 20.7012 40.8504 20.0889C40.3147 19.4767 40.1616 18.7879 40.4678 18.0225C40.3912 18.0225 40.3147 17.8695 40.1616 17.7164C37.9422 15.9561 35.4166 14.8081 32.5849 14.3489C32.2787 14.2724 32.1257 14.3489 31.9726 14.6551C31.2073 16.0327 29.2174 15.9561 28.4521 14.6551C28.299 14.4255 28.1459 14.3489 27.9163 14.4255C26.9979 14.6551 26.0795 14.8847 25.1611 15.1143C25.0081 15.1908 24.7019 15.1908 24.5489 15.1143C24.3958 15.0377 24.2427 14.8081 24.3193 14.6551C24.3958 14.502 24.5489 14.1959 24.7019 14.1959C25.6203 13.8897 26.4622 13.7367 27.3806 13.5071C27.4571 13.5071 27.4571 13.5071 27.5337 13.5071C27.9929 13.5071 28.2225 13.354 28.3755 12.8948C28.7582 11.9764 29.447 11.5938 30.3654 11.5938C31.2073 11.6703 31.8961 12.0529 32.2022 12.8948C32.3553 13.2009 32.5083 13.2775 32.8145 13.354C35.8758 13.8132 38.5544 14.9612 40.927 16.9511C41.1566 17.1041 41.3096 17.1807 41.6158 17.0276C42.3811 16.7215 43.2995 16.9511 43.8352 17.5633C44.371 18.1756 44.524 19.094 44.1414 19.8593C44.0648 20.0124 43.9883 20.1655 44.1414 20.3951C47.5854 25.5228 48.0446 30.9567 45.7486 36.6967C45.7486 36.7732 45.672 36.8497 45.672 36.9263C45.8251 37.0028 45.9016 37.0793 46.0547 37.2324C46.82 37.8447 47.2027 38.61 47.2027 39.6049C47.2027 41.1356 47.2027 42.7428 47.2027 44.2735C47.2027 45.1919 46.7435 45.6511 45.8251 45.6511C43.9883 45.6511 42.228 45.6511 40.3912 45.6511C40.2382 45.6511 40.0851 45.6511 39.932 45.6511C39.932 46.1103 39.932 46.4929 39.932 46.8756C40.0086 47.6409 39.7024 48.1001 39.0136 48.4062C33.1206 48.3297 27.3806 48.3297 21.5641 48.3297ZM34.1155 39.6049C33.8859 42.054 32.0491 43.3551 30.2889 43.3551C29.3705 43.3551 28.6051 43.1255 27.9163 42.5132C26.9214 41.7479 26.4622 40.7529 26.3857 39.5284C25.5438 39.5284 24.7785 39.5284 23.9366 39.5284C22.559 39.5284 21.7171 40.3703 21.7171 41.7479C21.7171 43.4316 21.7171 45.1153 21.7171 46.7991C21.7171 47.1052 21.7937 47.2582 22.1763 47.2582C25.3142 47.2582 28.4521 47.2582 31.5899 47.2582C33.8859 47.2582 36.1819 47.2582 38.4779 47.2582C38.631 47.2582 38.8606 47.3348 38.8606 47.0287C38.8606 45.1919 38.8606 43.4316 38.8606 41.5948C38.8606 40.5999 38.0187 39.6815 37.1003 39.6815C36.0288 39.5284 35.1104 39.6049 34.1155 39.6049ZM33.8859 29.1199C31.4369 29.9617 29.2939 29.0433 27.0745 28.5076C26.9979 28.5841 26.9214 28.6607 26.9214 28.8137C26.5387 29.3495 26.3857 29.9617 26.3857 30.574C26.3857 31.8751 26.3091 33.1761 26.4622 34.4007C26.6918 36.3905 28.5286 37.8447 30.5185 37.6916C32.5083 37.5385 34.1155 35.9313 34.1155 33.9415C34.1155 32.7935 34.1155 31.6455 34.1155 30.4975C34.1155 30.0383 33.9624 29.5791 33.8859 29.1199ZM18.9619 27.9719C18.8854 28.4311 18.7323 28.8137 18.6558 29.1964C18.5793 30.3444 18.5793 31.5689 18.6558 32.7169C18.8089 34.7833 20.6457 36.1609 22.6355 35.8548C23.6305 35.7017 24.4723 35.0895 25.0081 34.2476C24.9315 34.2476 24.855 34.1711 24.855 34.1711C23.5539 33.6353 23.0947 32.4108 23.7835 31.1863C23.7835 31.1097 23.8601 31.1097 23.8601 31.0332C23.8601 30.2679 23.8601 29.5791 23.8601 28.8137C22.1763 28.8137 20.6457 28.4311 18.9619 27.9719ZM45.9782 44.5031C45.9782 42.7428 45.9782 41.0591 45.9782 39.3753C45.9782 38.61 45.3659 37.8447 44.6006 37.7681C43.6822 37.6916 42.8403 37.7681 41.9219 37.7681C41.6923 39.4519 41.2331 40.1407 39.779 40.9825C39.779 42.2071 39.779 43.3551 39.779 44.5031C41.9219 44.5031 43.9118 44.5031 45.9782 44.5031ZM35.4931 34.1711C35.4931 34.2476 35.5696 34.3241 35.5696 34.3241C36.335 35.4721 37.8656 36.0844 39.1667 35.7783C40.6208 35.3956 41.6923 34.2476 41.7688 32.7935C41.8454 31.722 41.8454 30.574 41.7688 29.5025C41.7688 29.1199 41.6158 28.6607 41.6158 28.278C39.8555 29.1199 38.2483 28.5841 36.5646 28.278C36.5646 29.0433 36.5646 29.8087 36.5646 30.574C36.5646 30.8036 36.6411 30.9567 36.7176 31.1097C37.2534 32.1812 36.8707 33.4823 35.7227 33.9415C35.6462 34.0945 35.5696 34.1711 35.4931 34.1711ZM34.8043 24.2217C35.0339 24.7575 35.2635 25.2932 35.4931 25.8289C35.5696 26.0585 35.6462 26.1351 35.7992 26.2881C36.0288 26.5177 36.2584 26.7473 36.488 27.0535C36.5646 27.13 36.7176 27.2831 36.7942 27.3596C37.3299 27.5127 37.7891 27.6657 38.3248 27.6657C39.0902 27.7423 39.779 27.7423 40.5443 27.6657C40.7739 27.6657 40.927 27.3596 41.08 27.2065C41.2331 27.0535 41.3862 26.8239 41.5392 26.8239C41.6923 26.8239 41.9219 26.9769 42.075 27.13C42.3046 27.4361 42.4576 27.7423 42.6107 28.1249C42.6107 27.5127 42.6107 26.9769 42.6107 26.5177C42.6107 26.4412 42.4576 26.2881 42.3811 26.2116C41.9984 26.1351 41.8454 25.9055 41.8454 25.5228C41.7688 24.5279 41.0035 23.7625 40.0086 23.7625C38.7075 23.7625 37.4064 23.7625 36.1054 23.7625C35.5696 23.686 35.1104 23.9156 34.8043 24.2217ZM17.8139 27.9719C17.967 27.7423 18.1201 27.5127 18.1966 27.2831C18.5027 26.8239 18.6558 26.7473 19.1915 26.9004C19.9569 27.13 20.7222 27.2831 21.4875 27.5127C22.2529 27.6657 23.0947 27.8188 23.9366 27.6657C23.8601 26.3647 24.0131 25.1401 24.9315 24.2217C24.5489 23.9156 24.1662 23.7625 23.707 23.7625C22.4059 23.7625 21.1814 23.7625 19.8803 23.7625C18.7323 23.7625 17.8905 24.5279 17.8139 25.6759C17.7374 26.3647 17.8139 27.2065 17.8139 27.9719ZM31.8195 38.5335C30.595 38.8396 30.2123 38.9161 28.6051 38.5335C28.8347 39.4519 28.299 39.6815 27.5337 39.5284C27.6102 41.0591 28.8347 42.2836 30.3654 42.2836C31.8961 42.2071 33.1206 40.9825 33.0441 39.6049C32.7379 39.5284 32.3553 39.5284 32.2022 39.3753C31.8961 39.2223 31.8961 38.8396 31.8195 38.5335ZM21.0283 39.9111C21.411 39.5284 21.7937 39.2223 22.1763 38.9161C22.7886 38.5335 23.4009 38.4569 24.1662 38.4569C24.3193 38.4569 24.4723 38.3804 24.4723 38.3039C24.5489 38.1508 24.5489 37.9212 24.6254 37.6151C23.9366 37.6916 23.4774 37.5385 23.5539 36.6967C22.559 37.0028 21.6406 37.0028 20.7222 36.7732C20.6457 37.0793 20.5691 37.3855 20.4161 37.5385C20.263 37.6916 19.8803 37.6916 19.6507 37.7681C19.5742 38.61 20.1865 39.5284 21.0283 39.9111ZM36.9472 36.7732C36.7942 37.5385 36.7942 37.5385 35.9523 37.6916C35.8758 38.3804 35.9523 38.4569 36.6411 38.4569C37.483 38.4569 38.2483 38.6865 38.8606 39.2988C39.0902 39.4519 39.2432 39.6815 39.4728 39.9111C40.3912 39.5284 41.08 38.4569 40.927 37.6916C40.0851 37.6151 40.0086 37.6916 39.932 36.7732C38.8606 37.0793 37.9422 37.0028 36.9472 36.7732ZM18.2731 19.9359C18.8089 19.9359 19.2681 19.4767 19.2681 18.9409C19.2681 18.4052 18.8089 17.946 18.3497 17.946C17.8139 17.946 17.3547 18.3287 17.3547 18.8644C17.2782 19.4767 17.7374 19.9359 18.2731 19.9359ZM30.2123 14.5785C30.7481 14.5785 31.2073 14.1193 31.2073 13.5836C31.2073 13.0479 30.7481 12.6652 30.2123 12.5887C29.6766 12.5887 29.2174 13.0479 29.2174 13.5836C29.2939 14.1959 29.6766 14.5785 30.2123 14.5785ZM42.228 19.9359C42.7638 19.9359 43.223 19.4767 43.223 18.9409C43.223 18.4052 42.8403 18.0225 42.3046 17.946C41.7688 17.946 41.3096 18.3287 41.3096 18.8644C41.2331 19.4767 41.6923 19.9359 42.228 19.9359ZM27.4571 38.4569C27.5337 37.9977 27.3806 37.6916 27.0745 37.6916C26.6153 37.6151 26.1561 37.6916 25.6203 37.6916C25.6203 37.9977 25.5438 38.2273 25.5438 38.4569C26.2326 38.4569 26.8449 38.4569 27.4571 38.4569ZM34.8043 37.6916C34.4216 37.6916 34.039 37.6916 33.6563 37.6916C33.1206 37.6916 32.891 37.9212 33.0441 38.4569C33.6563 38.4569 34.2686 38.4569 34.9574 38.4569C34.8808 38.1508 34.8808 37.9212 34.8043 37.6916ZM35.8758 36.5436C35.8758 35.8548 35.187 35.7783 34.9574 35.3191C34.7278 35.7783 34.5747 36.0844 34.3451 36.5436C34.8808 36.5436 35.34 36.5436 35.8758 36.5436ZM26.0795 36.5436C25.8499 36.1609 25.6969 35.7783 25.4673 35.3956C25.2377 35.6252 25.0846 35.7783 24.855 35.9313C24.6254 36.0844 24.3958 36.2375 24.5489 36.5436C25.1611 36.5436 25.6203 36.5436 26.0795 36.5436ZM25.2377 33.0996C25.2377 32.4873 25.2377 31.9516 25.2377 31.3393C24.7785 31.4159 24.5489 31.722 24.5489 32.1047C24.5489 32.5639 24.7785 32.9465 25.2377 33.0996ZM35.187 31.3393C35.187 31.9516 35.187 32.4873 35.187 33.0996C35.6462 33.0231 35.8758 32.6404 35.8758 32.2577C35.9523 31.7985 35.6462 31.4924 35.187 31.3393ZM17.5843 30.2679C17.2017 30.4209 17.0486 30.7271 17.0486 31.0332C17.0486 31.3393 17.2017 31.5689 17.5843 31.722C17.5843 31.2628 17.5843 30.8036 17.5843 30.2679ZM42.9168 31.722C43.2995 31.5689 43.4526 31.3393 43.4526 30.9567C43.4526 30.6505 43.2995 30.4209 42.9168 30.2679C42.9168 30.8036 42.9168 31.2628 42.9168 31.722Z" fill="white"/>
</svg>
