<svg width="60" height="60" viewBox="0 0 60 60" fill="none" xmlns="http://www.w3.org/2000/svg">
<rect width="60" height="60" rx="15" fill="#CF51CE"/>
<g clip-path="url(#clip0_1525_19647)">
<path d="M38.6098 22.5187C37.5411 23.5875 36.4723 24.6562 35.3442 25.7844C36.6504 27.5062 37.1254 29.4656 36.6504 31.6031C36.2348 33.2656 35.2848 34.6313 33.8598 35.5813C31.0692 37.5406 27.3286 37.125 25.0129 34.6312C22.6379 32.0781 22.5192 28.3375 24.7754 25.6656C26.7942 23.2313 30.7129 22.0437 34.2161 24.5969C35.2848 23.5281 36.3536 22.4594 37.4223 21.3312C35.5223 19.7281 33.3254 18.7781 30.7129 18.6C30.7129 19.3125 30.7129 19.9656 30.7129 20.6781C30.7129 21.2719 30.4161 21.6281 29.9411 21.6281C29.4661 21.6281 29.1692 21.2719 29.1692 20.6781C29.1692 19.1344 29.1692 17.65 29.1692 16.1063C29.1692 15.9281 29.1692 15.75 29.1692 15.5719C27.6848 15.6312 26.2598 15.9281 24.8942 16.4625C20.1442 18.3625 17.1161 21.8063 15.8692 26.7938C15.8692 26.9125 15.8098 26.9719 15.8098 27.0906C15.6911 27.5063 15.3348 27.7438 14.9192 27.6844C14.5036 27.5656 14.2661 27.2094 14.3254 26.7344C14.7411 24.5969 15.5723 22.6375 16.8192 20.9156C19.7879 16.9375 23.6473 14.6219 28.5754 14.1469C28.7536 14.1469 28.9911 14.0875 29.2286 14.0875C29.2286 13.4344 29.2286 12.7219 29.2286 12.0687C29.2286 11.3562 29.4661 11 30.0004 11C30.4754 11 30.7723 11.3563 30.7723 12.0094C30.7723 13.5531 30.7723 15.0375 30.7723 16.5812C30.7723 16.7594 30.7723 16.9375 30.7723 17.1156C33.7411 17.3531 36.3536 18.4219 38.5504 20.3219C38.9067 19.9656 39.2036 19.6094 39.6192 19.1938C38.8473 18.6594 38.1348 18.0656 37.3036 17.5906C35.9973 16.8188 34.6317 16.225 33.1473 15.9281C33.0286 15.9281 32.9098 15.8687 32.8504 15.8687C32.4348 15.75 32.1973 15.3344 32.3161 14.9187C32.4348 14.5031 32.7911 14.2656 33.2661 14.3844C35.1661 14.7406 36.8879 15.4531 38.4911 16.5219C39.2629 17.0563 39.9754 17.5906 40.8661 18.2437C40.9254 18.0062 41.1036 17.8281 41.1036 17.65C41.1036 16.8187 41.1036 16.0469 41.1036 15.2156C41.1036 14.9187 41.2223 14.5625 41.4598 14.3844C42.4098 13.375 43.4192 12.3656 44.4286 11.3563C44.7254 11.0594 45.0223 10.9406 45.3786 11.1188C45.7348 11.2375 45.8536 11.5938 45.8536 11.95C45.8536 12.7219 45.8536 13.4344 45.8536 14.2656C46.6254 14.2656 47.3973 14.2656 48.1692 14.2656C48.5848 14.2656 48.8817 14.3844 49.0598 14.7406C49.1786 15.1563 49.0598 15.4531 48.7629 15.6906C47.7536 16.6406 46.8036 17.65 45.8536 18.6C45.6161 18.8375 45.2598 18.9562 44.9629 18.9562C44.1911 19.0156 43.3598 18.9562 42.5879 18.9562C42.4098 18.9562 42.1723 19.1344 41.9348 19.1938C43.2411 20.6781 44.1911 22.1625 44.9036 23.8844C45.6161 25.6063 45.9723 27.3281 46.0911 29.2281C46.8036 29.2281 47.5161 29.2281 48.1692 29.2281C48.7629 29.2281 49.1192 29.525 49.1192 30C49.1192 30.475 48.7629 30.7719 48.1692 30.7719C46.6254 30.7719 45.0817 30.7719 43.5379 30.7719C43.3598 30.7719 43.1817 30.7719 43.1223 30.7719C42.7661 32.0781 42.5879 33.3844 42.1129 34.5719C40.5692 38.55 37.7192 41.1625 33.6223 42.4094C33.5036 42.4094 33.4442 42.4688 33.3254 42.4688C32.8504 42.5875 32.4942 42.35 32.3754 41.9344C32.2567 41.5187 32.4942 41.1625 32.9692 40.9844C33.2661 40.8656 33.5629 40.8063 33.8004 40.6875C38.3129 38.9656 40.8661 35.6406 41.4004 30.8906C41.4004 30.8312 41.4004 30.8313 41.4004 30.7125C40.7473 30.7125 40.0348 30.7125 39.3817 30.7125C38.7879 30.7125 38.4317 30.4156 38.4317 29.9406C38.4317 29.4656 38.7879 29.1688 39.3817 29.1688C40.9254 29.1688 42.4098 29.1688 43.9536 29.1688C44.1317 29.1688 44.3098 29.1688 44.4879 29.1688C44.2504 25.7844 43.0629 22.8156 40.8661 20.3219C40.5098 20.6781 40.1536 21.0344 39.7973 21.3906C39.8567 21.45 39.9161 21.5687 40.0348 21.6875C41.1629 23.0531 41.9942 24.5969 42.4692 26.3187C42.7067 27.0312 42.5286 27.4469 42.0536 27.625C41.5786 27.7438 41.2223 27.4469 41.0442 26.7938C40.4504 25.25 39.6786 23.825 38.6098 22.5187ZM33.0879 25.7844C31.3067 24.3 28.2192 24.1812 26.1411 26.3187C24.1223 28.4562 24.1223 31.6031 26.2004 33.6813C28.2786 35.7594 31.4848 35.8188 33.5629 33.8C35.7004 31.7813 35.7004 28.6938 34.1567 26.7938C33.8598 27.0906 33.6223 27.3281 33.3254 27.625C33.0879 27.8031 33.1473 27.9812 33.2661 28.2188C33.6817 29.05 33.8598 29.8812 33.6223 30.7719C33.1473 32.85 31.0098 34.1562 28.9911 33.6219C26.9129 33.0875 25.6661 30.8906 26.2598 28.8719C26.9129 26.7938 29.1098 25.5469 31.0692 26.3781C31.9004 26.7344 32.3754 26.4969 32.7911 25.9031C32.9692 25.9031 33.0286 25.8437 33.0879 25.7844ZM32.0192 28.9906C31.4848 29.525 31.0098 30.0594 30.5348 30.5344C30.2379 30.8313 29.8223 30.8313 29.5254 30.5344C29.2286 30.2375 29.1692 29.8813 29.4067 29.525C29.5254 29.4063 29.6442 29.2875 29.7629 29.1688C30.1786 28.7531 30.5942 28.3375 31.0098 27.9219C29.8817 27.4469 28.7536 27.8031 28.1598 28.6937C27.5661 29.5844 27.6848 30.7719 28.4567 31.5437C29.2286 32.3156 30.3567 32.4344 31.3067 31.8406C32.1379 31.2469 32.4942 30.1187 32.0192 28.9906ZM42.5879 17.4125C43.2411 17.4125 43.8348 17.4125 44.4286 17.4125C44.5473 17.4125 44.7254 17.4125 44.7848 17.3531C45.2598 16.8781 45.7942 16.3438 46.3879 15.75C45.8536 15.75 45.4379 15.75 45.0817 15.75C44.5473 15.75 44.2504 15.4531 44.2504 14.9187C44.2504 14.5031 44.2504 14.0875 44.2504 13.5531C43.6567 14.1469 43.1817 14.6219 42.7067 15.0969C42.6473 15.1563 42.5879 15.275 42.5879 15.3938C42.5286 16.1063 42.5879 16.7 42.5879 17.4125Z" fill="white"/>
<path d="M13.9695 30.7717C13.3164 30.7717 12.6039 30.7717 11.8914 30.7717C11.2977 30.7717 10.9414 30.4749 10.9414 29.9999C10.9414 29.5249 11.2977 29.2874 11.832 29.228C13.5539 29.228 15.2164 29.228 16.9383 29.228C17.1758 28.2186 17.2945 27.2686 17.5914 26.3186C17.8289 25.5467 18.1852 24.7749 18.482 24.0624C18.7195 23.5874 19.1352 23.4092 19.5508 23.6467C19.9664 23.8842 20.0852 24.2999 19.7883 24.7749C19.0758 26.1999 18.6008 27.6842 18.5414 29.2874C19.1945 29.2874 19.7883 29.2874 20.4414 29.2874C21.1539 29.2874 21.5102 29.5249 21.5695 30.0592C21.5695 30.5936 21.2133 30.8311 20.4414 30.8311C18.957 30.8311 17.532 30.8311 16.0477 30.8311C15.8695 30.8311 15.6914 30.8311 15.5133 30.8311C15.5727 32.078 15.7508 33.2655 16.1664 34.3936C17.9477 39.5592 21.4508 42.8249 26.7352 44.1311C26.9133 44.1905 27.1508 44.2499 27.3289 44.3686C27.6258 44.6061 27.7445 44.903 27.5664 45.2592C27.3883 45.6155 27.0914 45.7936 26.6758 45.7342C24.8352 45.3186 23.0539 44.6655 21.4508 43.6561C17.1758 40.6874 14.682 36.6499 14.0883 31.4249C14.0883 31.2467 14.0289 31.0686 14.0289 30.8905C14.0289 30.8905 14.0289 30.8311 13.9695 30.7717Z" fill="white"/>
<path d="M30.7727 45.9723C30.7727 46.6848 30.7727 47.3379 30.7727 48.0504C30.7727 48.6441 30.4758 49.0004 30.0008 49.0004C29.5258 49.0004 29.2289 48.6441 29.2289 48.0504C29.2289 46.5066 29.2289 44.9629 29.2289 43.4191C29.2289 43.241 29.2289 43.0629 29.2289 42.9441C28.457 42.8254 27.7445 42.7066 27.032 42.5285C22.2227 41.2816 19.0758 38.3129 17.5914 33.5629C17.532 33.3848 17.4727 33.266 17.4727 33.0879C17.4727 32.6723 17.6508 32.4348 18.007 32.316C18.3633 32.1973 18.7195 32.316 18.8977 32.6723C18.957 32.8504 19.0164 33.0285 19.0758 33.2066C20.382 37.7191 24.5977 41.1629 29.2289 41.341C29.2289 40.6879 29.2289 39.9754 29.2289 39.3223C29.2289 38.7285 29.5258 38.3723 29.9414 38.3723C30.4164 38.3723 30.7133 38.7285 30.7133 39.3223C30.7133 40.8066 30.7133 42.3504 30.7133 43.8348C30.7133 44.0129 30.7133 44.191 30.7133 44.4879C31.6633 44.3098 32.6133 44.191 33.5039 44.0129C35.107 43.6566 36.532 43.0035 37.8977 42.1129C38.0164 42.0535 38.1352 41.9348 38.2539 41.8754C38.6102 41.7566 38.907 41.816 39.1445 42.1129C39.382 42.4098 39.3227 42.766 39.0852 43.0035C38.9664 43.1223 38.7883 43.241 38.6102 43.3598C36.2945 44.8441 33.7414 45.6754 31.0102 45.9129C31.0102 45.9129 30.8914 45.9723 30.7727 45.9723Z" fill="white"/>
<path d="M42.9437 38.9654C42.1719 38.9654 41.875 38.3717 42.1719 37.7185C42.7062 36.6498 43.2406 35.5217 43.7156 34.3935C43.8937 33.9185 44.0125 33.3842 44.1312 32.9092C44.25 32.4342 44.6062 32.1967 45.0219 32.256C45.4375 32.3748 45.675 32.731 45.6156 33.2654C45.2594 35.1654 44.5469 36.8873 43.4781 38.4904C43.3 38.7279 43.0625 38.906 42.9437 38.9654Z" fill="white"/>
<path d="M23.1727 20.6777C22.9946 20.4996 22.6977 20.3215 22.5789 20.0246C22.4008 19.6684 22.6383 19.3715 22.9352 19.134C24.0633 18.4215 25.3102 17.8277 26.6164 17.5309C27.0321 17.4121 27.3289 17.5309 27.5071 17.8871C27.7446 18.3027 27.5664 18.8371 27.0914 19.0152C25.8446 19.3715 24.7164 19.8465 23.6477 20.559C23.5883 20.559 23.4696 20.559 23.1727 20.6777Z" fill="white"/>
<path d="M21.8066 21.8061C21.8066 22.2217 21.4504 22.5186 21.0348 22.5186C20.6191 22.5186 20.3223 22.1623 20.3223 21.7467C20.3223 21.3311 20.6785 21.0342 21.0941 21.0342C21.4504 21.0342 21.8066 21.3904 21.8066 21.8061Z" fill="white"/>
<path d="M41.6375 40.5689C41.6375 40.9846 41.2812 41.3408 40.8656 41.3408C40.45 41.3408 40.0938 41.0439 40.0938 40.6283C40.0938 40.2127 40.3906 39.8564 40.8062 39.8564C41.2812 39.8564 41.6375 40.1533 41.6375 40.5689Z" fill="white"/>
</g>
<defs>
<clipPath id="clip0_1525_19647">
<rect width="38" height="38" fill="white" transform="translate(11 11)"/>
</clipPath>
</defs>
</svg>
