<svg>

    <symbol viewBox="0 0 60 60" id="icon1" xmlns="http://www.w3.org/2000/svg">
       <svg width="60" height="60" viewBox="0 0 60 60" fill="none" xmlns="http://www.w3.org/2000/svg">
<rect width="60" height="60" rx="15" fill="#CF51CE"/>
<g clip-path="url(#clip0_1525_19647)">
<path d="M38.6098 22.5187C37.5411 23.5875 36.4723 24.6562 35.3442 25.7844C36.6504 27.5062 37.1254 29.4656 36.6504 31.6031C36.2348 33.2656 35.2848 34.6313 33.8598 35.5813C31.0692 37.5406 27.3286 37.125 25.0129 34.6312C22.6379 32.0781 22.5192 28.3375 24.7754 25.6656C26.7942 23.2313 30.7129 22.0437 34.2161 24.5969C35.2848 23.5281 36.3536 22.4594 37.4223 21.3312C35.5223 19.7281 33.3254 18.7781 30.7129 18.6C30.7129 19.3125 30.7129 19.9656 30.7129 20.6781C30.7129 21.2719 30.4161 21.6281 29.9411 21.6281C29.4661 21.6281 29.1692 21.2719 29.1692 20.6781C29.1692 19.1344 29.1692 17.65 29.1692 16.1063C29.1692 15.9281 29.1692 15.75 29.1692 15.5719C27.6848 15.6312 26.2598 15.9281 24.8942 16.4625C20.1442 18.3625 17.1161 21.8063 15.8692 26.7938C15.8692 26.9125 15.8098 26.9719 15.8098 27.0906C15.6911 27.5063 15.3348 27.7438 14.9192 27.6844C14.5036 27.5656 14.2661 27.2094 14.3254 26.7344C14.7411 24.5969 15.5723 22.6375 16.8192 20.9156C19.7879 16.9375 23.6473 14.6219 28.5754 14.1469C28.7536 14.1469 28.9911 14.0875 29.2286 14.0875C29.2286 13.4344 29.2286 12.7219 29.2286 12.0687C29.2286 11.3562 29.4661 11 30.0004 11C30.4754 11 30.7723 11.3563 30.7723 12.0094C30.7723 13.5531 30.7723 15.0375 30.7723 16.5812C30.7723 16.7594 30.7723 16.9375 30.7723 17.1156C33.7411 17.3531 36.3536 18.4219 38.5504 20.3219C38.9067 19.9656 39.2036 19.6094 39.6192 19.1938C38.8473 18.6594 38.1348 18.0656 37.3036 17.5906C35.9973 16.8188 34.6317 16.225 33.1473 15.9281C33.0286 15.9281 32.9098 15.8687 32.8504 15.8687C32.4348 15.75 32.1973 15.3344 32.3161 14.9187C32.4348 14.5031 32.7911 14.2656 33.2661 14.3844C35.1661 14.7406 36.8879 15.4531 38.4911 16.5219C39.2629 17.0563 39.9754 17.5906 40.8661 18.2437C40.9254 18.0062 41.1036 17.8281 41.1036 17.65C41.1036 16.8187 41.1036 16.0469 41.1036 15.2156C41.1036 14.9187 41.2223 14.5625 41.4598 14.3844C42.4098 13.375 43.4192 12.3656 44.4286 11.3563C44.7254 11.0594 45.0223 10.9406 45.3786 11.1188C45.7348 11.2375 45.8536 11.5938 45.8536 11.95C45.8536 12.7219 45.8536 13.4344 45.8536 14.2656C46.6254 14.2656 47.3973 14.2656 48.1692 14.2656C48.5848 14.2656 48.8817 14.3844 49.0598 14.7406C49.1786 15.1563 49.0598 15.4531 48.7629 15.6906C47.7536 16.6406 46.8036 17.65 45.8536 18.6C45.6161 18.8375 45.2598 18.9562 44.9629 18.9562C44.1911 19.0156 43.3598 18.9562 42.5879 18.9562C42.4098 18.9562 42.1723 19.1344 41.9348 19.1938C43.2411 20.6781 44.1911 22.1625 44.9036 23.8844C45.6161 25.6063 45.9723 27.3281 46.0911 29.2281C46.8036 29.2281 47.5161 29.2281 48.1692 29.2281C48.7629 29.2281 49.1192 29.525 49.1192 30C49.1192 30.475 48.7629 30.7719 48.1692 30.7719C46.6254 30.7719 45.0817 30.7719 43.5379 30.7719C43.3598 30.7719 43.1817 30.7719 43.1223 30.7719C42.7661 32.0781 42.5879 33.3844 42.1129 34.5719C40.5692 38.55 37.7192 41.1625 33.6223 42.4094C33.5036 42.4094 33.4442 42.4688 33.3254 42.4688C32.8504 42.5875 32.4942 42.35 32.3754 41.9344C32.2567 41.5187 32.4942 41.1625 32.9692 40.9844C33.2661 40.8656 33.5629 40.8063 33.8004 40.6875C38.3129 38.9656 40.8661 35.6406 41.4004 30.8906C41.4004 30.8312 41.4004 30.8313 41.4004 30.7125C40.7473 30.7125 40.0348 30.7125 39.3817 30.7125C38.7879 30.7125 38.4317 30.4156 38.4317 29.9406C38.4317 29.4656 38.7879 29.1688 39.3817 29.1688C40.9254 29.1688 42.4098 29.1688 43.9536 29.1688C44.1317 29.1688 44.3098 29.1688 44.4879 29.1688C44.2504 25.7844 43.0629 22.8156 40.8661 20.3219C40.5098 20.6781 40.1536 21.0344 39.7973 21.3906C39.8567 21.45 39.9161 21.5687 40.0348 21.6875C41.1629 23.0531 41.9942 24.5969 42.4692 26.3187C42.7067 27.0312 42.5286 27.4469 42.0536 27.625C41.5786 27.7438 41.2223 27.4469 41.0442 26.7938C40.4504 25.25 39.6786 23.825 38.6098 22.5187ZM33.0879 25.7844C31.3067 24.3 28.2192 24.1812 26.1411 26.3187C24.1223 28.4562 24.1223 31.6031 26.2004 33.6813C28.2786 35.7594 31.4848 35.8188 33.5629 33.8C35.7004 31.7813 35.7004 28.6938 34.1567 26.7938C33.8598 27.0906 33.6223 27.3281 33.3254 27.625C33.0879 27.8031 33.1473 27.9812 33.2661 28.2188C33.6817 29.05 33.8598 29.8812 33.6223 30.7719C33.1473 32.85 31.0098 34.1562 28.9911 33.6219C26.9129 33.0875 25.6661 30.8906 26.2598 28.8719C26.9129 26.7938 29.1098 25.5469 31.0692 26.3781C31.9004 26.7344 32.3754 26.4969 32.7911 25.9031C32.9692 25.9031 33.0286 25.8437 33.0879 25.7844ZM32.0192 28.9906C31.4848 29.525 31.0098 30.0594 30.5348 30.5344C30.2379 30.8313 29.8223 30.8313 29.5254 30.5344C29.2286 30.2375 29.1692 29.8813 29.4067 29.525C29.5254 29.4063 29.6442 29.2875 29.7629 29.1688C30.1786 28.7531 30.5942 28.3375 31.0098 27.9219C29.8817 27.4469 28.7536 27.8031 28.1598 28.6937C27.5661 29.5844 27.6848 30.7719 28.4567 31.5437C29.2286 32.3156 30.3567 32.4344 31.3067 31.8406C32.1379 31.2469 32.4942 30.1187 32.0192 28.9906ZM42.5879 17.4125C43.2411 17.4125 43.8348 17.4125 44.4286 17.4125C44.5473 17.4125 44.7254 17.4125 44.7848 17.3531C45.2598 16.8781 45.7942 16.3438 46.3879 15.75C45.8536 15.75 45.4379 15.75 45.0817 15.75C44.5473 15.75 44.2504 15.4531 44.2504 14.9187C44.2504 14.5031 44.2504 14.0875 44.2504 13.5531C43.6567 14.1469 43.1817 14.6219 42.7067 15.0969C42.6473 15.1563 42.5879 15.275 42.5879 15.3938C42.5286 16.1063 42.5879 16.7 42.5879 17.4125Z" fill="white"/>
<path d="M13.9695 30.7717C13.3164 30.7717 12.6039 30.7717 11.8914 30.7717C11.2977 30.7717 10.9414 30.4749 10.9414 29.9999C10.9414 29.5249 11.2977 29.2874 11.832 29.228C13.5539 29.228 15.2164 29.228 16.9383 29.228C17.1758 28.2186 17.2945 27.2686 17.5914 26.3186C17.8289 25.5467 18.1852 24.7749 18.482 24.0624C18.7195 23.5874 19.1352 23.4092 19.5508 23.6467C19.9664 23.8842 20.0852 24.2999 19.7883 24.7749C19.0758 26.1999 18.6008 27.6842 18.5414 29.2874C19.1945 29.2874 19.7883 29.2874 20.4414 29.2874C21.1539 29.2874 21.5102 29.5249 21.5695 30.0592C21.5695 30.5936 21.2133 30.8311 20.4414 30.8311C18.957 30.8311 17.532 30.8311 16.0477 30.8311C15.8695 30.8311 15.6914 30.8311 15.5133 30.8311C15.5727 32.078 15.7508 33.2655 16.1664 34.3936C17.9477 39.5592 21.4508 42.8249 26.7352 44.1311C26.9133 44.1905 27.1508 44.2499 27.3289 44.3686C27.6258 44.6061 27.7445 44.903 27.5664 45.2592C27.3883 45.6155 27.0914 45.7936 26.6758 45.7342C24.8352 45.3186 23.0539 44.6655 21.4508 43.6561C17.1758 40.6874 14.682 36.6499 14.0883 31.4249C14.0883 31.2467 14.0289 31.0686 14.0289 30.8905C14.0289 30.8905 14.0289 30.8311 13.9695 30.7717Z" fill="white"/>
<path d="M30.7727 45.9723C30.7727 46.6848 30.7727 47.3379 30.7727 48.0504C30.7727 48.6441 30.4758 49.0004 30.0008 49.0004C29.5258 49.0004 29.2289 48.6441 29.2289 48.0504C29.2289 46.5066 29.2289 44.9629 29.2289 43.4191C29.2289 43.241 29.2289 43.0629 29.2289 42.9441C28.457 42.8254 27.7445 42.7066 27.032 42.5285C22.2227 41.2816 19.0758 38.3129 17.5914 33.5629C17.532 33.3848 17.4727 33.266 17.4727 33.0879C17.4727 32.6723 17.6508 32.4348 18.007 32.316C18.3633 32.1973 18.7195 32.316 18.8977 32.6723C18.957 32.8504 19.0164 33.0285 19.0758 33.2066C20.382 37.7191 24.5977 41.1629 29.2289 41.341C29.2289 40.6879 29.2289 39.9754 29.2289 39.3223C29.2289 38.7285 29.5258 38.3723 29.9414 38.3723C30.4164 38.3723 30.7133 38.7285 30.7133 39.3223C30.7133 40.8066 30.7133 42.3504 30.7133 43.8348C30.7133 44.0129 30.7133 44.191 30.7133 44.4879C31.6633 44.3098 32.6133 44.191 33.5039 44.0129C35.107 43.6566 36.532 43.0035 37.8977 42.1129C38.0164 42.0535 38.1352 41.9348 38.2539 41.8754C38.6102 41.7566 38.907 41.816 39.1445 42.1129C39.382 42.4098 39.3227 42.766 39.0852 43.0035C38.9664 43.1223 38.7883 43.241 38.6102 43.3598C36.2945 44.8441 33.7414 45.6754 31.0102 45.9129C31.0102 45.9129 30.8914 45.9723 30.7727 45.9723Z" fill="white"/>
<path d="M42.9437 38.9654C42.1719 38.9654 41.875 38.3717 42.1719 37.7185C42.7062 36.6498 43.2406 35.5217 43.7156 34.3935C43.8937 33.9185 44.0125 33.3842 44.1312 32.9092C44.25 32.4342 44.6062 32.1967 45.0219 32.256C45.4375 32.3748 45.675 32.731 45.6156 33.2654C45.2594 35.1654 44.5469 36.8873 43.4781 38.4904C43.3 38.7279 43.0625 38.906 42.9437 38.9654Z" fill="white"/>
<path d="M23.1727 20.6777C22.9946 20.4996 22.6977 20.3215 22.5789 20.0246C22.4008 19.6684 22.6383 19.3715 22.9352 19.134C24.0633 18.4215 25.3102 17.8277 26.6164 17.5309C27.0321 17.4121 27.3289 17.5309 27.5071 17.8871C27.7446 18.3027 27.5664 18.8371 27.0914 19.0152C25.8446 19.3715 24.7164 19.8465 23.6477 20.559C23.5883 20.559 23.4696 20.559 23.1727 20.6777Z" fill="white"/>
<path d="M21.8066 21.8061C21.8066 22.2217 21.4504 22.5186 21.0348 22.5186C20.6191 22.5186 20.3223 22.1623 20.3223 21.7467C20.3223 21.3311 20.6785 21.0342 21.0941 21.0342C21.4504 21.0342 21.8066 21.3904 21.8066 21.8061Z" fill="white"/>
<path d="M41.6375 40.5689C41.6375 40.9846 41.2812 41.3408 40.8656 41.3408C40.45 41.3408 40.0938 41.0439 40.0938 40.6283C40.0938 40.2127 40.3906 39.8564 40.8062 39.8564C41.2812 39.8564 41.6375 40.1533 41.6375 40.5689Z" fill="white"/>
</g>
<defs>
<clipPath id="clip0_1525_19647">
<rect width="38" height="38" fill="white" transform="translate(11 11)"/>
</clipPath>
</defs>
</svg>
    </symbol>

    <symbol viewBox="0 0 60 60" id="icon2" xmlns="http://www.w3.org/2000/svg">
       <svg width="60" height="60" viewBox="0 0 60 60" fill="none" xmlns="http://www.w3.org/2000/svg">
<rect width="60" height="60" rx="15" fill="#CF51CE"/>
<g clip-path="url(#clip0_1525_19661)">
<path d="M13.5488 43.4544H30.6478V45.3543C30.6478 46.4032 31.4988 47.2542 32.5477 47.2542H35.0809C35.635 47.2542 36.1595 47.0068 36.5157 46.5912C36.5256 46.5912 36.5355 46.5912 36.5454 46.5813C37.0105 47.0167 37.6141 47.2542 38.2474 47.2542H45.8469C46.8958 47.2542 47.7468 46.4032 47.7468 45.3543C47.7468 45.0277 47.6578 44.7012 47.4895 44.4241C48.3504 43.8898 48.6374 42.7716 48.1228 41.8909C48.5978 41.5941 48.9145 41.0993 48.9936 40.5452C49.0728 39.991 48.8947 39.427 48.5186 39.0213C49.0233 38.4672 49.1519 37.6657 48.8452 36.9829C48.5384 36.3001 47.8557 35.8548 47.1036 35.8548H45.2037V16.2226C45.2037 14.8274 44.0658 13.6895 42.6705 13.6895H13.5488C12.1536 13.6895 11.0156 14.8274 11.0156 16.2226V40.9212C11.0156 42.3164 12.1536 43.4544 13.5488 43.4544ZM35.0809 45.9876H32.5477C32.2014 45.9876 31.9144 45.7006 31.9144 45.3543V39.6546C31.9144 39.3083 32.2014 39.0213 32.5477 39.0213H35.0809C35.4272 39.0213 35.7142 39.3083 35.7142 39.6546V45.3543C35.7142 45.7006 35.4272 45.9876 35.0809 45.9876ZM47.7468 37.7547C47.7468 38.1011 47.4599 38.388 47.1135 38.388H45.2136C44.8673 38.388 44.5803 38.675 44.5803 39.0213C44.5803 39.3676 44.8673 39.6546 45.2136 39.6546H47.1135C47.4599 39.6546 47.7468 39.9416 47.7468 40.2879C47.7468 40.6342 47.4599 40.9212 47.1135 40.9212H45.2136C44.8673 40.9212 44.5803 41.2082 44.5803 41.5545C44.5803 41.9008 44.8673 42.1878 45.2136 42.1878H46.4802C46.8266 42.1878 47.1135 42.4748 47.1135 42.8211C47.1135 43.1674 46.8266 43.4544 46.4802 43.4544H45.2136C44.8673 43.4544 44.5803 43.7413 44.5803 44.0877C44.5803 44.434 44.8673 44.721 45.2136 44.721H45.8469C46.1933 44.721 46.4802 45.0079 46.4802 45.3543C46.4802 45.7006 46.1933 45.9876 45.8469 45.9876H38.2474C37.5448 45.9876 36.9808 45.4235 36.9808 44.721V39.3874C37.7724 38.8927 38.3661 38.1307 38.663 37.2501C39.227 35.558 39.514 33.7867 39.514 32.0056C39.514 31.9165 39.5733 31.8473 39.6525 31.8176C39.8702 31.778 40.4342 31.679 40.9686 32.7279C41.2654 33.3315 41.4139 33.9945 41.404 34.6773V36.4881C41.404 36.8345 41.6909 37.1214 42.0373 37.1214H47.1036C47.4599 37.1214 47.7468 37.4084 47.7468 37.7547ZM42.6804 35.8548V34.6773C42.6903 33.8065 42.4924 32.9357 42.1065 32.154C41.4831 30.9369 40.5332 30.3729 39.4348 30.5708C38.7421 30.6994 38.2474 31.303 38.2474 32.0056C38.2474 33.6482 37.9802 35.2908 37.4656 36.8543C37.2677 37.4381 36.8818 37.9328 36.3673 38.2792C36.0209 37.9526 35.5559 37.7745 35.0809 37.7646H32.5477C31.4988 37.7646 30.6478 38.6156 30.6478 39.6645V42.1977H13.5488C12.8462 42.1977 12.2822 41.6337 12.2822 40.9311V20.0224H43.947V35.8548H42.6804ZM13.5488 14.956H42.6804C43.383 14.956 43.947 15.5201 43.947 16.2226V18.7558H12.2822V16.2226C12.2822 15.5201 12.8462 14.956 13.5488 14.956Z" fill="white"/>
<path fill-rule="evenodd" clip-rule="evenodd" d="M14.8155 16.856C14.8155 17.2023 14.5285 17.4893 14.1822 17.4893C13.8358 17.4893 13.5488 17.2023 13.5488 16.856C13.5488 16.5096 13.8358 16.2227 14.1822 16.2227C14.5285 16.2227 14.8155 16.5096 14.8155 16.856Z" fill="white"/>
<path fill-rule="evenodd" clip-rule="evenodd" d="M17.3487 16.856C17.3487 17.2023 17.0617 17.4893 16.7154 17.4893C16.369 17.4893 16.082 17.2023 16.082 16.856C16.082 16.5096 16.369 16.2227 16.7154 16.2227C17.0617 16.2227 17.3487 16.5096 17.3487 16.856Z" fill="white"/>
<path fill-rule="evenodd" clip-rule="evenodd" d="M19.8819 16.856C19.8819 17.2023 19.5949 17.4893 19.2486 17.4893C18.9022 17.4893 18.6152 17.2023 18.6152 16.856C18.6152 16.5096 18.9022 16.2227 19.2486 16.2227C19.5949 16.2227 19.8819 16.5096 19.8819 16.856Z" fill="white"/>
<path d="M16.0816 33.3219H26.215C27.2639 33.3219 28.115 32.4708 28.115 31.4219V23.8219C28.115 22.7729 27.2639 21.9219 26.215 21.9219H16.0816C15.0327 21.9219 14.1816 22.7729 14.1816 23.8219V31.4219C14.1816 32.4708 15.0327 33.3219 16.0816 33.3219ZM17.6353 32.0552L20.5645 27.4438L21.9697 29.2052L20.1686 32.0552H17.6353ZM26.215 32.0552H21.6728L25.0077 26.8104L26.8483 29.1161V31.4318C26.8483 31.7682 26.5613 32.0552 26.215 32.0552ZM15.4483 23.8219C15.4483 23.4755 15.7353 23.1885 16.0816 23.1885H26.215C26.5613 23.1885 26.8483 23.4755 26.8483 23.8219V27.0875L25.4431 25.326C25.3145 25.1677 25.1165 25.0786 24.9186 25.0885C24.7108 25.0984 24.5327 25.2073 24.4139 25.3854L22.702 28.0771L21.0098 25.9594C20.8811 25.801 20.6832 25.712 20.4853 25.7219C20.2775 25.7318 20.0993 25.8406 19.9806 26.0188L16.141 32.0552H16.0816C15.7353 32.0552 15.4483 31.7682 15.4483 31.4219V23.8219V23.8219Z" fill="white"/>
<path fill-rule="evenodd" clip-rule="evenodd" d="M17.9815 25.0884C17.9815 25.4348 17.6945 25.7217 17.3482 25.7217C17.0018 25.7217 16.7148 25.4348 16.7148 25.0884C16.7148 24.7421 17.0018 24.4551 17.3482 24.4551C17.6945 24.4551 17.9815 24.7421 17.9815 25.0884Z" fill="white"/>
<path fill-rule="evenodd" clip-rule="evenodd" d="M41.4137 22.5547H30.647C30.3007 22.5547 30.0137 22.8417 30.0137 23.188C30.0137 23.5344 30.3007 23.8214 30.647 23.8214H41.4137C41.76 23.8214 42.047 23.5344 42.047 23.188C42.047 22.8417 41.76 22.5547 41.4137 22.5547Z" fill="white"/>
<path fill-rule="evenodd" clip-rule="evenodd" d="M41.4137 25.0889H30.647C30.3007 25.0889 30.0137 25.3758 30.0137 25.7222C30.0137 26.0686 30.3007 26.3555 30.647 26.3555H41.4137C41.76 26.3555 42.047 26.0686 42.047 25.7222C42.047 25.3758 41.76 25.0889 41.4137 25.0889Z" fill="white"/>
<path fill-rule="evenodd" clip-rule="evenodd" d="M41.4137 27.6211H30.647C30.3007 27.6211 30.0137 27.9081 30.0137 28.2544C30.0137 28.6008 30.3007 28.8878 30.647 28.8878H41.4137C41.76 28.8878 42.047 28.6008 42.047 28.2544C42.047 27.9081 41.76 27.6211 41.4137 27.6211Z" fill="white"/>
<path fill-rule="evenodd" clip-rule="evenodd" d="M36.347 30.1553H30.647C30.3007 30.1553 30.0137 30.4423 30.0137 30.7886C30.0137 31.135 30.3007 31.4219 30.647 31.4219H36.347C36.6934 31.4219 36.9803 31.135 36.9803 30.7886C36.9803 30.4423 36.6934 30.1553 36.347 30.1553Z" fill="white"/>
<path fill-rule="evenodd" clip-rule="evenodd" d="M29.3816 35.8545H14.815C14.4686 35.8545 14.1816 36.1415 14.1816 36.4878C14.1816 36.8342 14.4686 37.1212 14.815 37.1212H29.3816C29.728 37.1212 30.015 36.8342 30.015 36.4878C30.015 36.1415 29.728 35.8545 29.3816 35.8545Z" fill="white"/>
<path fill-rule="evenodd" clip-rule="evenodd" d="M27.4816 38.3867H14.815C14.4686 38.3867 14.1816 38.6737 14.1816 39.0201C14.1816 39.3664 14.4686 39.6534 14.815 39.6534H27.4816C27.828 39.6534 28.115 39.3664 28.115 39.0201C28.115 38.6737 27.828 38.3867 27.4816 38.3867Z" fill="white"/>
</g>
<defs>
<clipPath id="clip0_1525_19661">
<rect width="37.9978" height="37.9978" fill="white" transform="translate(11.0156 11.3135)"/>
</clipPath>
</defs>
</svg>
    </symbol>

    <symbol viewBox="0 0 60 60" id="icon3" xmlns="http://www.w3.org/2000/svg">
      <svg width="60" height="60" viewBox="0 0 60 60" fill="none" xmlns="http://www.w3.org/2000/svg">
<rect width="60" height="60" rx="15" fill="#CF51CE"/>
<path d="M21.5641 48.3297C20.8753 48.0236 20.5691 47.5644 20.6457 46.7991C20.6457 46.4164 20.6457 45.9572 20.6457 45.5745C20.4926 45.5745 20.3395 45.5745 20.1865 45.5745C18.3497 45.5745 16.5894 45.5745 14.7526 45.5745C13.8342 45.5745 13.375 45.1153 13.375 44.1969C13.375 43.8143 13.375 43.4316 13.375 43.0489C13.375 42.6663 13.6046 42.4367 13.9107 42.4367C14.2169 42.4367 14.4465 42.6663 14.4465 43.0489C14.4465 43.4316 14.4465 43.8143 14.4465 44.1969C14.4465 44.35 14.523 44.4265 14.6761 44.4265C16.6659 44.4265 18.5793 44.4265 20.6457 44.4265C20.6457 43.202 20.6457 42.054 20.6457 40.906C19.1915 39.9876 18.7323 39.3753 18.5027 37.6916C17.5843 37.6916 16.6659 37.6151 15.8241 37.6916C15.0587 37.7681 14.523 38.61 14.4465 39.4519C14.4465 39.8345 14.4465 40.1407 14.4465 40.5233C14.4465 40.906 14.2169 41.1356 13.9107 41.1356C13.6046 41.1356 13.375 40.906 13.375 40.5233C13.375 40.1407 13.375 39.6815 13.375 39.2988C13.4515 38.3804 13.9107 37.6151 14.6761 37.0793C14.7526 37.0028 14.8291 37.0028 14.9057 36.9263C14.5995 35.9313 14.2169 35.0129 13.9873 34.0945C12.7627 29.1964 13.5281 24.6809 16.3598 20.4716C16.5129 20.242 16.5894 20.0889 16.4363 19.7828C16.0537 19.0175 16.2067 18.0991 16.819 17.4868C17.4313 16.8745 18.2731 16.6449 19.115 17.0276C19.2681 17.1807 19.4211 17.1041 19.5742 16.9511C20.4926 16.3388 21.3345 15.7265 22.2529 15.1143C22.6355 14.8847 22.9417 14.9612 23.0947 15.2673C23.2478 15.5735 23.0947 15.8031 22.7886 16.0327C21.9467 16.6449 21.1049 17.1807 20.263 17.7929C20.1099 17.8695 20.1099 18.0225 20.1865 18.1756C20.4926 18.9409 20.3395 19.7063 19.8038 20.242C19.2681 20.8543 18.5793 21.0839 17.7374 20.8543C17.5078 20.7777 17.4313 20.8543 17.2782 21.0073C15.7475 23.2268 14.8291 25.6759 14.5995 28.4311C14.2934 31.1863 14.7526 33.7884 15.8241 36.314C15.9006 36.5436 16.0537 36.6201 16.3598 36.6201C17.4313 36.6201 18.5027 36.6201 19.4977 36.6201C19.5742 36.314 19.4977 36.1609 19.3446 36.0079C18.4262 35.2425 17.8139 34.3241 17.6609 33.1761C17.6609 32.9465 17.5843 32.87 17.3547 32.7935C15.9771 32.4108 15.5179 30.7271 16.5129 29.6556C16.5894 29.5791 16.6659 29.3495 16.6659 29.1964C16.6659 28.0484 16.6659 26.9769 16.6659 25.8289C16.6659 24.1452 17.7374 22.9207 19.2681 22.6145C19.4977 22.538 19.8038 22.538 20.0334 22.538C21.1814 22.538 22.3294 22.538 23.4774 22.538C24.2427 22.538 25.0081 22.7676 25.6203 23.3033C25.6969 23.3799 25.8499 23.3799 25.9265 23.3799C26.6153 23.0737 27.3041 22.9972 28.0694 22.9972C28.4521 22.9972 28.7582 22.9972 29.1409 22.9972C29.447 22.9972 29.6766 23.2268 29.7531 23.5329C29.7531 23.8391 29.5235 24.0687 29.1409 24.0687C28.6051 24.0687 28.0694 24.0687 27.5337 24.0687C26.1561 24.0687 25.0081 25.1401 24.9315 26.5177C24.855 27.6657 24.9315 28.8137 24.9315 29.9617C24.9315 30.0383 24.9315 30.0383 24.9315 30.1148C25.2377 30.1913 25.2377 30.0383 25.3142 29.8087C25.4673 28.9668 25.7734 28.2015 26.2326 27.5127C26.5387 27.13 26.6918 27.0535 27.151 27.2065C28.6051 27.6657 29.9827 28.0484 31.5134 28.2015C31.8961 28.2015 32.3553 28.2015 32.7379 28.1249C32.9675 28.0484 33.2737 27.8953 33.4267 27.7423C33.7329 27.4361 34.1155 27.4361 34.3451 27.8188C34.7278 28.4311 35.0339 29.1199 35.1104 29.8087C35.1104 29.9617 35.187 30.1913 35.4166 30.1148C35.4166 30.0383 35.4166 29.9617 35.4166 29.8852C35.4166 29.1199 35.4166 28.3545 35.4166 27.5892C35.4166 27.2065 35.34 26.9769 34.8808 26.9769C34.5747 26.9004 34.4216 26.6708 34.4216 26.3647C34.4216 25.7524 34.192 25.2932 33.8094 24.834C33.3502 24.2983 32.7379 24.0687 32.1257 24.0687C31.8961 24.0687 31.6665 24.0687 31.5134 24.0687C31.2073 24.0687 30.9777 23.8391 30.9777 23.5329C30.9777 23.2268 31.2073 22.9972 31.5134 22.9972C32.3553 22.9207 33.1971 23.0737 33.8859 23.4564C34.6512 22.6911 35.5696 22.4615 36.5646 22.538C37.7126 22.538 38.784 22.538 39.932 22.538C41.3862 22.538 42.5342 23.4564 42.9168 24.834C42.9168 24.9105 42.9934 25.0636 43.1464 25.1401C43.6056 25.4463 43.8352 25.9055 43.8352 26.4412C43.8352 27.2831 43.8352 28.2015 43.8352 29.0433C43.8352 29.1964 43.9118 29.426 44.0648 29.5025C45.0598 30.574 44.6006 32.1812 43.223 32.6404C42.9934 32.7169 42.9934 32.7935 42.9168 32.9465C42.6872 34.0945 42.1515 35.0895 41.2331 35.8548C41.08 35.9313 41.08 36.1609 40.927 36.314L41.0035 36.3905C41.5392 36.3905 41.9984 36.3905 42.5342 36.3905C43.0699 36.3905 43.6822 36.3905 44.2179 36.3905C44.524 36.3905 44.6006 36.314 44.7536 36.0844C45.8251 33.5588 46.2078 30.9567 45.9782 28.278C45.7486 25.5993 44.8302 23.1503 43.376 20.9308C43.223 20.7012 43.0699 20.6247 42.8403 20.7012C42.075 20.9308 41.3862 20.7012 40.8504 20.0889C40.3147 19.4767 40.1616 18.7879 40.4678 18.0225C40.3912 18.0225 40.3147 17.8695 40.1616 17.7164C37.9422 15.9561 35.4166 14.8081 32.5849 14.3489C32.2787 14.2724 32.1257 14.3489 31.9726 14.6551C31.2073 16.0327 29.2174 15.9561 28.4521 14.6551C28.299 14.4255 28.1459 14.3489 27.9163 14.4255C26.9979 14.6551 26.0795 14.8847 25.1611 15.1143C25.0081 15.1908 24.7019 15.1908 24.5489 15.1143C24.3958 15.0377 24.2427 14.8081 24.3193 14.6551C24.3958 14.502 24.5489 14.1959 24.7019 14.1959C25.6203 13.8897 26.4622 13.7367 27.3806 13.5071C27.4571 13.5071 27.4571 13.5071 27.5337 13.5071C27.9929 13.5071 28.2225 13.354 28.3755 12.8948C28.7582 11.9764 29.447 11.5938 30.3654 11.5938C31.2073 11.6703 31.8961 12.0529 32.2022 12.8948C32.3553 13.2009 32.5083 13.2775 32.8145 13.354C35.8758 13.8132 38.5544 14.9612 40.927 16.9511C41.1566 17.1041 41.3096 17.1807 41.6158 17.0276C42.3811 16.7215 43.2995 16.9511 43.8352 17.5633C44.371 18.1756 44.524 19.094 44.1414 19.8593C44.0648 20.0124 43.9883 20.1655 44.1414 20.3951C47.5854 25.5228 48.0446 30.9567 45.7486 36.6967C45.7486 36.7732 45.672 36.8497 45.672 36.9263C45.8251 37.0028 45.9016 37.0793 46.0547 37.2324C46.82 37.8447 47.2027 38.61 47.2027 39.6049C47.2027 41.1356 47.2027 42.7428 47.2027 44.2735C47.2027 45.1919 46.7435 45.6511 45.8251 45.6511C43.9883 45.6511 42.228 45.6511 40.3912 45.6511C40.2382 45.6511 40.0851 45.6511 39.932 45.6511C39.932 46.1103 39.932 46.4929 39.932 46.8756C40.0086 47.6409 39.7024 48.1001 39.0136 48.4062C33.1206 48.3297 27.3806 48.3297 21.5641 48.3297ZM34.1155 39.6049C33.8859 42.054 32.0491 43.3551 30.2889 43.3551C29.3705 43.3551 28.6051 43.1255 27.9163 42.5132C26.9214 41.7479 26.4622 40.7529 26.3857 39.5284C25.5438 39.5284 24.7785 39.5284 23.9366 39.5284C22.559 39.5284 21.7171 40.3703 21.7171 41.7479C21.7171 43.4316 21.7171 45.1153 21.7171 46.7991C21.7171 47.1052 21.7937 47.2582 22.1763 47.2582C25.3142 47.2582 28.4521 47.2582 31.5899 47.2582C33.8859 47.2582 36.1819 47.2582 38.4779 47.2582C38.631 47.2582 38.8606 47.3348 38.8606 47.0287C38.8606 45.1919 38.8606 43.4316 38.8606 41.5948C38.8606 40.5999 38.0187 39.6815 37.1003 39.6815C36.0288 39.5284 35.1104 39.6049 34.1155 39.6049ZM33.8859 29.1199C31.4369 29.9617 29.2939 29.0433 27.0745 28.5076C26.9979 28.5841 26.9214 28.6607 26.9214 28.8137C26.5387 29.3495 26.3857 29.9617 26.3857 30.574C26.3857 31.8751 26.3091 33.1761 26.4622 34.4007C26.6918 36.3905 28.5286 37.8447 30.5185 37.6916C32.5083 37.5385 34.1155 35.9313 34.1155 33.9415C34.1155 32.7935 34.1155 31.6455 34.1155 30.4975C34.1155 30.0383 33.9624 29.5791 33.8859 29.1199ZM18.9619 27.9719C18.8854 28.4311 18.7323 28.8137 18.6558 29.1964C18.5793 30.3444 18.5793 31.5689 18.6558 32.7169C18.8089 34.7833 20.6457 36.1609 22.6355 35.8548C23.6305 35.7017 24.4723 35.0895 25.0081 34.2476C24.9315 34.2476 24.855 34.1711 24.855 34.1711C23.5539 33.6353 23.0947 32.4108 23.7835 31.1863C23.7835 31.1097 23.8601 31.1097 23.8601 31.0332C23.8601 30.2679 23.8601 29.5791 23.8601 28.8137C22.1763 28.8137 20.6457 28.4311 18.9619 27.9719ZM45.9782 44.5031C45.9782 42.7428 45.9782 41.0591 45.9782 39.3753C45.9782 38.61 45.3659 37.8447 44.6006 37.7681C43.6822 37.6916 42.8403 37.7681 41.9219 37.7681C41.6923 39.4519 41.2331 40.1407 39.779 40.9825C39.779 42.2071 39.779 43.3551 39.779 44.5031C41.9219 44.5031 43.9118 44.5031 45.9782 44.5031ZM35.4931 34.1711C35.4931 34.2476 35.5696 34.3241 35.5696 34.3241C36.335 35.4721 37.8656 36.0844 39.1667 35.7783C40.6208 35.3956 41.6923 34.2476 41.7688 32.7935C41.8454 31.722 41.8454 30.574 41.7688 29.5025C41.7688 29.1199 41.6158 28.6607 41.6158 28.278C39.8555 29.1199 38.2483 28.5841 36.5646 28.278C36.5646 29.0433 36.5646 29.8087 36.5646 30.574C36.5646 30.8036 36.6411 30.9567 36.7176 31.1097C37.2534 32.1812 36.8707 33.4823 35.7227 33.9415C35.6462 34.0945 35.5696 34.1711 35.4931 34.1711ZM34.8043 24.2217C35.0339 24.7575 35.2635 25.2932 35.4931 25.8289C35.5696 26.0585 35.6462 26.1351 35.7992 26.2881C36.0288 26.5177 36.2584 26.7473 36.488 27.0535C36.5646 27.13 36.7176 27.2831 36.7942 27.3596C37.3299 27.5127 37.7891 27.6657 38.3248 27.6657C39.0902 27.7423 39.779 27.7423 40.5443 27.6657C40.7739 27.6657 40.927 27.3596 41.08 27.2065C41.2331 27.0535 41.3862 26.8239 41.5392 26.8239C41.6923 26.8239 41.9219 26.9769 42.075 27.13C42.3046 27.4361 42.4576 27.7423 42.6107 28.1249C42.6107 27.5127 42.6107 26.9769 42.6107 26.5177C42.6107 26.4412 42.4576 26.2881 42.3811 26.2116C41.9984 26.1351 41.8454 25.9055 41.8454 25.5228C41.7688 24.5279 41.0035 23.7625 40.0086 23.7625C38.7075 23.7625 37.4064 23.7625 36.1054 23.7625C35.5696 23.686 35.1104 23.9156 34.8043 24.2217ZM17.8139 27.9719C17.967 27.7423 18.1201 27.5127 18.1966 27.2831C18.5027 26.8239 18.6558 26.7473 19.1915 26.9004C19.9569 27.13 20.7222 27.2831 21.4875 27.5127C22.2529 27.6657 23.0947 27.8188 23.9366 27.6657C23.8601 26.3647 24.0131 25.1401 24.9315 24.2217C24.5489 23.9156 24.1662 23.7625 23.707 23.7625C22.4059 23.7625 21.1814 23.7625 19.8803 23.7625C18.7323 23.7625 17.8905 24.5279 17.8139 25.6759C17.7374 26.3647 17.8139 27.2065 17.8139 27.9719ZM31.8195 38.5335C30.595 38.8396 30.2123 38.9161 28.6051 38.5335C28.8347 39.4519 28.299 39.6815 27.5337 39.5284C27.6102 41.0591 28.8347 42.2836 30.3654 42.2836C31.8961 42.2071 33.1206 40.9825 33.0441 39.6049C32.7379 39.5284 32.3553 39.5284 32.2022 39.3753C31.8961 39.2223 31.8961 38.8396 31.8195 38.5335ZM21.0283 39.9111C21.411 39.5284 21.7937 39.2223 22.1763 38.9161C22.7886 38.5335 23.4009 38.4569 24.1662 38.4569C24.3193 38.4569 24.4723 38.3804 24.4723 38.3039C24.5489 38.1508 24.5489 37.9212 24.6254 37.6151C23.9366 37.6916 23.4774 37.5385 23.5539 36.6967C22.559 37.0028 21.6406 37.0028 20.7222 36.7732C20.6457 37.0793 20.5691 37.3855 20.4161 37.5385C20.263 37.6916 19.8803 37.6916 19.6507 37.7681C19.5742 38.61 20.1865 39.5284 21.0283 39.9111ZM36.9472 36.7732C36.7942 37.5385 36.7942 37.5385 35.9523 37.6916C35.8758 38.3804 35.9523 38.4569 36.6411 38.4569C37.483 38.4569 38.2483 38.6865 38.8606 39.2988C39.0902 39.4519 39.2432 39.6815 39.4728 39.9111C40.3912 39.5284 41.08 38.4569 40.927 37.6916C40.0851 37.6151 40.0086 37.6916 39.932 36.7732C38.8606 37.0793 37.9422 37.0028 36.9472 36.7732ZM18.2731 19.9359C18.8089 19.9359 19.2681 19.4767 19.2681 18.9409C19.2681 18.4052 18.8089 17.946 18.3497 17.946C17.8139 17.946 17.3547 18.3287 17.3547 18.8644C17.2782 19.4767 17.7374 19.9359 18.2731 19.9359ZM30.2123 14.5785C30.7481 14.5785 31.2073 14.1193 31.2073 13.5836C31.2073 13.0479 30.7481 12.6652 30.2123 12.5887C29.6766 12.5887 29.2174 13.0479 29.2174 13.5836C29.2939 14.1959 29.6766 14.5785 30.2123 14.5785ZM42.228 19.9359C42.7638 19.9359 43.223 19.4767 43.223 18.9409C43.223 18.4052 42.8403 18.0225 42.3046 17.946C41.7688 17.946 41.3096 18.3287 41.3096 18.8644C41.2331 19.4767 41.6923 19.9359 42.228 19.9359ZM27.4571 38.4569C27.5337 37.9977 27.3806 37.6916 27.0745 37.6916C26.6153 37.6151 26.1561 37.6916 25.6203 37.6916C25.6203 37.9977 25.5438 38.2273 25.5438 38.4569C26.2326 38.4569 26.8449 38.4569 27.4571 38.4569ZM34.8043 37.6916C34.4216 37.6916 34.039 37.6916 33.6563 37.6916C33.1206 37.6916 32.891 37.9212 33.0441 38.4569C33.6563 38.4569 34.2686 38.4569 34.9574 38.4569C34.8808 38.1508 34.8808 37.9212 34.8043 37.6916ZM35.8758 36.5436C35.8758 35.8548 35.187 35.7783 34.9574 35.3191C34.7278 35.7783 34.5747 36.0844 34.3451 36.5436C34.8808 36.5436 35.34 36.5436 35.8758 36.5436ZM26.0795 36.5436C25.8499 36.1609 25.6969 35.7783 25.4673 35.3956C25.2377 35.6252 25.0846 35.7783 24.855 35.9313C24.6254 36.0844 24.3958 36.2375 24.5489 36.5436C25.1611 36.5436 25.6203 36.5436 26.0795 36.5436ZM25.2377 33.0996C25.2377 32.4873 25.2377 31.9516 25.2377 31.3393C24.7785 31.4159 24.5489 31.722 24.5489 32.1047C24.5489 32.5639 24.7785 32.9465 25.2377 33.0996ZM35.187 31.3393C35.187 31.9516 35.187 32.4873 35.187 33.0996C35.6462 33.0231 35.8758 32.6404 35.8758 32.2577C35.9523 31.7985 35.6462 31.4924 35.187 31.3393ZM17.5843 30.2679C17.2017 30.4209 17.0486 30.7271 17.0486 31.0332C17.0486 31.3393 17.2017 31.5689 17.5843 31.722C17.5843 31.2628 17.5843 30.8036 17.5843 30.2679ZM42.9168 31.722C43.2995 31.5689 43.4526 31.3393 43.4526 30.9567C43.4526 30.6505 43.2995 30.4209 42.9168 30.2679C42.9168 30.8036 42.9168 31.2628 42.9168 31.722Z" fill="white"/>
</svg>
    </symbol>
    
    <symbol viewBox="0 0 60 60" id="icon4" xmlns="http://www.w3.org/2000/svg">
      <svg width="60" height="60" viewBox="0 0 60 60" fill="none" xmlns="http://www.w3.org/2000/svg">
<rect width="60" height="60" rx="15" fill="#CF51CE"/>
<g clip-path="url(#clip0_1525_19690)">
<path d="M29.5523 49.258C28.8476 49.0954 28.1972 48.8786 27.7635 48.2823C27.4925 47.9029 27.2757 47.4151 27.0589 46.9814C26.9505 46.7646 26.8963 46.6562 26.6794 46.602C25.2701 46.331 23.8608 45.8431 22.5599 45.1926C20.5001 44.1628 18.7113 42.7534 17.2477 40.9647C17.0851 40.7478 16.9225 40.7478 16.7057 40.802C15.3506 41.2899 13.887 40.6936 13.1824 39.4469C12.4777 38.146 12.7487 36.574 13.9412 35.7068C14.1581 35.5441 14.2123 35.3815 14.1039 35.1105C13.1282 31.9124 13.1282 28.6601 14.1039 25.462C14.1581 25.2452 14.1581 25.0826 13.9412 24.9199C12.7487 24.0527 12.4235 22.4807 13.1282 21.1798C13.8328 19.8789 15.2964 19.3368 16.7057 19.8247C16.9767 19.9331 17.0851 19.8247 17.2477 19.662C18.7113 17.8733 20.5001 16.4639 22.5599 15.434C23.8066 14.7836 25.1617 14.3499 26.5168 14.0789C26.8421 14.0247 27.0589 13.9163 27.1673 13.4827C27.3841 12.1817 28.6308 11.3145 29.986 11.3145C31.3411 11.3145 32.5336 12.2901 32.8046 13.5911C32.8588 13.9163 33.0214 14.0247 33.2925 14.0789C35.5149 14.5126 37.5205 15.3798 39.3634 16.6808C40.6102 17.548 41.6943 18.5237 42.6157 19.662C42.7784 19.8789 42.941 19.9331 43.212 19.8247C44.5129 19.3368 46.0307 19.9331 46.7353 21.1256C47.44 22.4265 47.169 23.9984 46.0307 24.8657C45.8138 25.0283 45.7596 25.191 45.8138 25.462C46.7895 28.6601 46.7895 31.9124 45.8138 35.1105C45.7596 35.3273 45.7596 35.4899 45.9765 35.6525C47.0606 36.4656 47.44 37.9834 46.8979 39.2301C46.3017 40.531 44.8924 41.2899 43.5914 40.9104C42.9952 40.7478 42.7242 40.9104 42.3447 41.3441C39.9597 44.0543 36.9242 45.7889 33.4009 46.5478C33.0756 46.602 32.8588 46.7646 32.8046 47.144C32.4794 48.2823 31.7205 48.9328 30.6364 49.258C30.528 49.258 30.4738 49.3122 30.3654 49.3122C30.0402 49.258 29.8233 49.258 29.5523 49.258ZM29.9317 21.9929C25.3785 21.9929 21.6384 25.733 21.6384 30.2862C21.6384 34.8395 25.3785 38.5796 29.9317 38.5796C34.485 38.5796 38.2251 34.8395 38.2251 30.2862C38.2251 25.733 34.485 21.9929 29.9317 21.9929ZM27.1131 15.163C23.3729 15.8677 20.3374 17.7107 17.9524 20.6377C18.6029 21.4508 18.8197 22.3181 18.6029 23.2938C18.6029 23.4022 18.7113 23.5106 18.7655 23.5648C19.4702 23.9442 20.1748 24.3237 20.8795 24.7031C21.2047 24.8657 21.53 25.0826 21.8552 25.2452C23.8066 22.3723 26.4626 20.8003 29.9317 20.8003C33.4009 20.8003 36.0027 22.4265 37.9541 25.2452C38.8756 24.7573 39.7429 24.2695 40.6102 23.7816C41.0438 23.5648 41.3148 23.348 41.2064 22.7517C41.0438 21.9387 41.369 21.234 41.9111 20.5835C39.5261 17.6565 36.4906 15.8135 32.7504 15.1088C32.371 16.2471 31.6121 16.8976 30.4738 17.1686C30.4738 17.9817 30.4738 18.7948 30.4738 19.5536C30.0944 19.5536 29.7149 19.5536 29.2813 19.5536C29.2813 18.7406 29.2813 17.9275 29.2813 17.1686C28.2514 16.8976 27.4925 16.2471 27.1131 15.163ZM17.9524 39.9348C20.3916 42.8618 23.3729 44.7048 27.1131 45.4095C27.4925 44.3254 28.2514 43.6207 29.3897 43.3497C29.3897 42.5366 29.3897 41.7235 29.3897 40.9647C29.8233 40.9647 30.1486 40.9647 30.5822 40.9647C30.5822 41.7777 30.5822 42.5908 30.5822 43.3497C31.7205 43.6207 32.4252 44.3254 32.8046 45.4095C36.5448 44.6506 39.5803 42.8618 41.9653 39.9348C41.2606 38.8507 41.2064 38.5254 41.3148 37.2787C41.3148 37.1703 41.2606 37.0619 41.2064 37.0077C40.1765 36.4114 39.0924 35.8694 38.0083 35.2731C36.0569 38.146 33.4009 39.7179 29.9317 39.7179C26.4626 39.7179 23.8066 38.0918 21.8552 35.2731C20.7711 35.8694 19.7412 36.4114 18.7113 37.0077C18.6571 37.0619 18.5487 37.1703 18.6029 37.2787C18.8197 38.3086 18.5487 39.1759 17.9524 39.9348ZM21.3131 34.2432C20.1748 31.5872 20.1748 28.9311 21.3131 26.2751C20.1748 25.6788 19.0907 25.0283 17.9524 24.4321C17.1935 25.2452 16.3263 25.5704 15.2422 25.462C14.2665 28.6601 14.2665 31.804 15.2422 35.0021C16.3263 34.8937 17.1935 35.2731 17.9524 36.032C19.0907 35.4899 20.1748 34.8937 21.3131 34.2432ZM41.9111 36.0862C42.6157 35.3815 43.4288 34.9479 44.4587 35.0021C44.5129 35.0021 44.6755 34.8395 44.7297 34.7853C45.2718 33.0507 45.4886 31.3161 45.3802 29.4732C45.326 28.118 45.1092 26.8171 44.6213 25.5162C43.5914 25.6246 42.7242 25.2994 42.0195 24.5947C41.9653 24.5405 41.8027 24.5405 41.6943 24.5947C41.2064 24.8657 40.7186 25.1368 40.2849 25.3536C39.7429 25.6788 39.1466 25.9498 38.6046 26.2751C39.7429 28.9311 39.7429 31.5872 38.6046 34.2432C39.6887 34.8937 40.7728 35.4899 41.9111 36.0862ZM29.9317 16.0303C30.9074 16.0303 31.7205 15.2172 31.7205 14.2957C31.7205 13.32 30.9616 12.507 29.986 12.507C29.0103 12.507 28.1972 13.32 28.1972 14.2957C28.143 15.2172 28.9561 16.0303 29.9317 16.0303ZM17.4646 22.5891C17.4646 21.6134 16.6515 20.8003 15.6758 20.8003C14.7001 20.8003 13.887 21.6134 13.887 22.5891C13.887 23.5648 14.7001 24.3237 15.6758 24.3237C16.7057 24.3237 17.4646 23.5106 17.4646 22.5891ZM45.9223 22.5891C45.9223 21.6134 45.1092 20.8003 44.1877 20.8003C43.212 20.8003 42.3989 21.5592 42.3989 22.5349C42.3989 23.5106 43.212 24.3237 44.1877 24.3237C45.1092 24.3779 45.9223 23.5648 45.9223 22.5891ZM17.4646 37.9834C17.4646 37.0077 16.6515 36.1946 15.6758 36.1946C14.7001 36.1946 13.887 37.0077 13.887 37.9834C13.887 38.9591 14.7001 39.7721 15.6758 39.7721C16.7057 39.7721 17.4646 38.9591 17.4646 37.9834ZM45.9223 37.9834C45.9223 37.0077 45.1092 36.1946 44.1877 36.1946C43.212 36.1946 42.3989 36.9535 42.3989 37.9292C42.3989 38.9049 43.212 39.7179 44.1877 39.7179C45.1092 39.7721 45.9223 38.9591 45.9223 37.9834ZM29.9317 44.5422C28.9561 44.5422 28.143 45.3553 28.143 46.2768C28.143 47.2524 28.9561 48.0655 29.9317 48.0655C30.9074 48.0655 31.7205 47.2524 31.7205 46.2768C31.7205 45.3011 30.9074 44.5422 29.9317 44.5422Z" fill="white"/>
<path d="M28.035 29.5809C26.8966 28.551 26.734 27.3042 27.0593 25.949C27.3845 24.5395 28.7939 23.618 30.1491 23.7264C31.7212 23.889 32.7511 25.0816 32.8595 26.6537C32.9137 27.7378 32.6969 28.7136 31.7754 29.5267C31.938 29.6351 32.1006 29.7977 32.2632 29.9062C33.1306 30.4482 34.0521 30.9903 34.9195 31.4782C35.1363 31.5866 35.2447 31.7492 35.1905 32.0203C35.1905 32.5624 35.1905 33.1044 35.1905 33.5923C35.2447 34.297 34.8652 34.7849 34.269 35.0017C33.6727 35.2186 33.0222 35.3812 32.4259 35.4354C30.4744 35.598 28.4687 35.6522 26.5172 35.327C26.1919 35.2728 25.8667 35.1644 25.5414 35.0559C24.8909 34.7849 24.5115 34.297 24.5657 33.5923C24.5657 33.0502 24.5657 32.5082 24.5657 31.9661C24.5657 31.7492 24.6199 31.6408 24.7825 31.5324C25.704 30.9903 26.5714 30.4482 27.4929 29.9062C27.7097 29.8519 27.8724 29.7435 28.035 29.5809ZM29.607 34.4597C30.6912 34.4054 31.4501 34.4054 32.209 34.3512C32.6969 34.297 33.239 34.1886 33.7269 34.0802C33.9979 34.026 34.0521 33.8634 34.0521 33.5923C34.2147 32.725 33.8895 32.1287 33.0222 31.8034C32.9137 31.7492 32.8053 31.695 32.7511 31.6408C32.1006 31.2072 31.4501 30.7193 30.7996 30.2856C30.7454 30.2314 30.5828 30.2314 30.4744 30.2314C30.0407 30.2314 29.6612 30.2314 29.2276 30.2314C29.1192 30.2314 28.9565 30.2314 28.9023 30.2856C28.1976 31.0445 27.2761 31.4782 26.4088 31.9661C25.8667 32.2913 25.5956 32.6166 25.704 33.2671C25.7583 34.026 25.7583 34.026 26.463 34.2428C26.5172 34.2428 26.5172 34.2428 26.5714 34.2428C27.764 34.297 28.8481 34.4054 29.607 34.4597ZM28.1434 26.9789C28.1434 27.1415 28.1434 27.3042 28.1434 27.4668C28.1976 28.3883 28.9565 29.0388 29.8239 29.093C30.6912 29.1472 31.5043 28.551 31.6127 27.6836C31.667 27.1957 31.667 26.7079 31.5585 26.2742C31.2875 25.19 29.9865 24.648 29.0107 25.19C28.4145 25.5695 28.1434 26.22 28.1434 26.9789Z" fill="white"/>
<path d="M30.529 14.8376C30.1495 14.8376 29.7701 14.8376 29.3906 14.8376C29.3906 14.4581 29.3906 14.0787 29.3906 13.6992C29.7701 13.6992 30.1495 13.6992 30.529 13.6992C30.529 14.0787 30.529 14.4581 30.529 14.8376Z" fill="white"/>
<path d="M16.2712 23.1296C15.8917 23.1296 15.5123 23.1296 15.1328 23.1296C15.1328 22.7501 15.1328 22.3707 15.1328 21.9912C15.5123 21.9912 15.8917 21.9912 16.2712 21.9912C16.2712 22.3707 16.2712 22.7501 16.2712 23.1296Z" fill="white"/>
<path d="M44.7302 21.9912C44.7302 22.3707 44.7302 22.7501 44.7302 23.1296C44.3507 23.1296 43.9713 23.1296 43.5918 23.1296C43.5918 22.7501 43.5918 22.3707 43.5918 21.9912C43.9713 21.9912 44.3507 21.9912 44.7302 21.9912Z" fill="white"/>
<path d="M16.2712 38.5788C15.8917 38.5788 15.5123 38.5788 15.1328 38.5788C15.1328 38.1993 15.1328 37.8199 15.1328 37.4404C15.5123 37.4404 15.8917 37.4404 16.2712 37.4404C16.2712 37.8199 16.2712 38.1993 16.2712 38.5788Z" fill="white"/>
<path d="M44.7302 37.4404C44.7302 37.8199 44.7302 38.1993 44.7302 38.5788C44.3507 38.5788 43.9713 38.5788 43.5918 38.5788C43.5918 38.1993 43.5918 37.8199 43.5918 37.4404C43.9713 37.4404 44.3507 37.4404 44.7302 37.4404Z" fill="white"/>
<path d="M30.529 45.7344C30.529 46.1138 30.529 46.4933 30.529 46.8727C30.1495 46.8727 29.7701 46.8727 29.3906 46.8727C29.3906 46.4933 29.3906 46.1138 29.3906 45.7344C29.7701 45.7344 30.0953 45.7344 30.529 45.7344Z" fill="white"/>
</g>
<defs>
<clipPath id="clip0_1525_19690">
<rect width="37.9978" height="37.9978" fill="white" transform="translate(10.9785 11.3135)"/>
</clipPath>
</defs>
</svg>
    </symbol>

</svg>