<svg width="270" height="278" viewBox="0 0 270 278" fill="none" xmlns="http://www.w3.org/2000/svg">
<g clip-path="url(#clip0_1525_19530)">
<path opacity="0.5" d="M242.851 58.8045C238.75 53.1788 203.641 6.65097 146.733 8.91776C143.889 9.03027 88.3872 11.9683 67.9163 48.4405C52.7733 75.4198 68.8057 99.3564 50.332 117.738C34.2307 133.755 14.4523 123.153 4.56073 136.105C-10.5075 155.834 13.4843 209.118 50.3572 238.834C88.426 269.517 161.257 292.027 217.869 251.09C281.417 205.129 280.776 110.828 242.851 58.8045Z" fill="url(#paint0_linear_1525_19530)" fill-opacity="0.5"/>
<g style="mix-blend-mode:soft-light">
<g style="mix-blend-mode:soft-light">
<path d="M65.6892 176.486C60.4021 176.482 55.1209 176.134 49.8789 175.445L49.94 174.978C83.9195 179.413 105.748 168.285 108.137 166.995C96.1943 148.385 104.636 121.002 104.723 120.728L105.171 120.87C105.085 121.144 96.6463 148.526 108.669 166.952L108.804 167.159L108.589 167.283C108.396 167.391 92.3601 176.486 65.6892 176.486Z" fill="white"/>
</g>
</g>
<path d="M86.6772 152.705C86.3469 152.704 86.0286 152.581 85.7843 152.359C85.5401 152.136 85.3874 151.831 85.3561 151.502C84.1921 139.289 80.2095 127.683 74.1424 118.825C68.7679 110.977 62.3701 106.294 57.0237 106.294H57.0072C37.5353 106.332 33.4615 151.038 33.4227 151.494C33.3839 151.839 33.2121 152.154 32.9441 152.374C32.6761 152.593 32.333 152.7 31.9878 152.67C31.6425 152.641 31.3225 152.477 31.0958 152.215C30.869 151.954 30.7535 151.613 30.7738 151.267C30.9406 149.328 35.1095 103.683 57.0014 103.643H57.0247C63.342 103.643 70.379 108.629 76.3374 117.33C82.6538 126.553 86.7974 138.602 88.0031 151.256C88.0204 151.43 88.0031 151.606 87.9522 151.773C87.9013 151.941 87.8179 152.097 87.7067 152.232C87.5955 152.367 87.4587 152.479 87.3042 152.561C87.1497 152.643 86.9804 152.694 86.8062 152.711C86.7628 152.707 86.7198 152.705 86.6772 152.705Z" fill="url(#paint1_linear_1525_19530)"/>
<path d="M5.55602 244.713L31.189 257.69L46.7248 210.031L21.1296 146.134L13.8734 147.913L2.86245 239.671C2.73922 240.687 2.93165 241.715 3.41358 242.617C3.89551 243.519 4.64356 244.251 5.55602 244.713Z" fill="url(#paint2_linear_1525_19530)"/>
<path style="mix-blend-mode:multiply" opacity="0.52" d="M46.7258 210.031L21.1306 146.135L16.8512 147.188C16.3627 154.067 16.3863 160.973 16.922 167.848C18.6369 189.601 24.3344 195.655 21.5778 210.831C19.2828 223.449 14.2711 225.162 14.7085 233.652C15.1858 242.897 21.635 250.64 29.3025 256.729L31.1939 257.686L46.7258 210.031Z" fill="url(#paint3_linear_1525_19530)"/>
<path d="M21.1289 146.138H116.703L148.333 248.251L31.1883 257.69L21.1289 146.138Z" fill="url(#paint4_linear_1525_19530)"/>
<path d="M50.738 154.89C50.4378 154.891 50.1464 154.79 49.9111 154.603C49.6758 154.417 49.5105 154.156 49.4421 153.864C49.1705 152.706 42.891 125.347 51.7448 111.916C54.2822 108.069 57.8284 105.718 62.2824 104.933C85.1733 100.9 99.2619 150.058 99.8507 152.153C99.9032 152.323 99.9211 152.501 99.9035 152.678C99.8859 152.855 99.8331 153.026 99.7482 153.182C99.6633 153.338 99.548 153.475 99.4092 153.586C99.2703 153.697 99.1107 153.778 98.9398 153.826C98.7688 153.874 98.59 153.888 98.4138 153.865C98.2376 153.843 98.0677 153.786 97.914 153.697C97.7604 153.608 97.626 153.489 97.519 153.347C97.412 153.206 97.3345 153.044 97.291 152.872C97.1533 152.387 83.2819 103.925 62.7441 107.551C58.9855 108.214 56.1135 110.121 53.965 113.38C45.734 125.862 51.9669 152.984 52.0309 153.257C52.1112 153.6 52.0519 153.962 51.8661 154.261C51.6802 154.561 51.3829 154.775 51.0396 154.855C50.9407 154.878 50.8395 154.89 50.738 154.89Z" fill="url(#paint5_linear_1525_19530)"/>
<g style="mix-blend-mode:multiply" opacity="0.3">
<path style="mix-blend-mode:multiply" opacity="0.3" d="M116.705 146.134H69.2912C66.9527 148.513 65.2931 151.254 65.134 154.33C64.3891 168.782 97.6023 173.523 100.806 193.322C103.117 207.606 88.8989 224.088 76.2128 231.43C62.8469 239.167 53.7904 235.249 44.7504 243.838C40.7794 247.612 38.3603 252.331 36.9219 257.224L148.335 248.247L116.705 146.134Z" fill="url(#paint6_linear_1525_19530)"/>
</g>
<path d="M54.4174 155.695C54.7461 153.67 53.3709 151.761 51.3457 151.433C49.3205 151.104 47.4122 152.479 47.0835 154.504C46.7548 156.53 48.13 158.438 50.1552 158.767C52.1804 159.095 54.0886 157.72 54.4174 155.695Z" fill="url(#paint7_linear_1525_19530)"/>
<path d="M103.411 154.882C103.739 152.851 102.359 150.938 100.328 150.61C98.2963 150.282 96.3836 151.662 96.0553 153.693C95.7271 155.724 97.1075 157.637 99.1387 157.965C101.17 158.294 103.083 156.913 103.411 154.882Z" fill="url(#paint8_linear_1525_19530)"/>
<path d="M186.873 40.2153C195.175 110.375 203.477 179.807 211.778 248.509C212.151 251.59 210.023 254.314 207.045 254.568C173.679 257.733 140.314 260.966 106.952 264.267C101 264.558 97.7313 261.23 97.3492 257.901C88.8045 183.739 80.2595 108.8 71.7142 33.0852C71.3262 29.6845 74.2119 26.762 80.1635 27.053C113.693 29.4456 147.221 31.8058 180.748 34.1337C183.747 34.3316 186.501 37.0659 186.873 40.2153Z" fill="#26264F"/>
<path d="M191.509 40.0698C199.864 110.54 208.218 180.269 216.571 249.256C216.946 252.347 214.806 255.087 211.809 255.342C177.164 258.276 142.519 261.269 107.874 264.319C104.713 264.6 101.807 262.096 101.422 258.75C92.8215 184.248 84.2212 108.96 75.6209 32.8873C75.2329 29.4721 77.5269 26.8513 80.7103 27.0676C115.588 29.3955 150.466 31.6943 185.343 33.9639C188.364 34.1638 191.135 36.9078 191.509 40.0698Z" fill="url(#paint9_linear_1525_19530)"/>
<path d="M189.494 51.5978C197.231 116.889 204.969 181.543 212.707 245.56C213.058 248.453 211.059 251.008 208.257 251.236C175.675 253.9 143.093 256.616 110.512 259.384C107.568 259.636 104.862 257.291 104.498 254.184C96.5446 185.37 88.5942 115.885 80.647 45.7286C80.2872 42.5539 82.4201 40.098 85.3824 40.2735C118.167 42.1824 150.951 44.0712 183.736 45.94C186.556 46.0991 189.145 48.6539 189.494 51.5978Z" fill="url(#paint10_linear_1525_19530)"/>
<path d="M189.494 51.5978C197.231 116.889 204.969 181.543 212.707 245.56C213.058 248.453 211.059 251.008 208.257 251.236C175.675 253.9 143.093 256.616 110.512 259.384C107.568 259.636 104.862 257.291 104.498 254.184C96.5446 185.37 88.5942 115.885 80.647 45.7286C80.2872 42.5539 82.4201 40.098 85.3824 40.2735C118.167 42.1824 150.951 44.0712 183.736 45.94C186.556 46.0991 189.145 48.6539 189.494 51.5978Z" fill="url(#paint11_linear_1525_19530)"/>
<g style="mix-blend-mode:multiply" opacity="0.35">
<path d="M183.74 45.938C151.344 44.0912 118.947 42.2247 86.5508 40.3385C87.6409 46.697 89.5542 52.8866 92.2425 58.7511C102.989 82.065 118.776 83.3483 124.951 103.66C131.314 124.591 116.965 131.141 123.975 150.039C131.582 170.544 150.24 167.576 160.101 190.07C168.6 209.457 157.658 218.32 166.447 230.102C176.081 243.015 193.902 238.637 212.4 243.011C204.765 179.827 197.131 116.023 189.495 51.5987C189.146 48.6539 186.557 46.099 183.74 45.938Z" fill="url(#paint12_linear_1525_19530)"/>
</g>
<path d="M136.423 37.3317C136.555 38.4675 135.791 39.3366 134.719 39.2716C133.646 39.2066 132.666 38.2308 132.534 37.0901C132.402 35.9495 133.167 35.0784 134.24 35.1502C135.314 35.222 136.291 36.1949 136.423 37.3317Z" fill="#DE8BDF"/>
<path d="M148.126 100.426C152.267 100.426 155.624 96.4658 155.624 91.5803C155.624 86.6948 152.267 82.7343 148.126 82.7343C143.984 82.7343 140.627 86.6948 140.627 91.5803C140.627 96.4658 143.984 100.426 148.126 100.426Z" fill="#DD51D4"/>
<path d="M148.126 100.426C152.267 100.426 155.624 96.4658 155.624 91.5803C155.624 86.6948 152.267 82.7343 148.126 82.7343C143.984 82.7343 140.627 86.6948 140.627 91.5803C140.627 96.4658 143.984 100.426 148.126 100.426Z" fill="black" fill-opacity="0.2"/>
<path d="M177.974 100.426C182.115 100.426 185.472 96.4658 185.472 91.5803C185.472 86.6948 182.115 82.7343 177.974 82.7343C173.833 82.7343 170.477 86.6948 170.477 91.5803C170.477 96.4658 173.833 100.426 177.974 100.426Z" fill="#DD51D4"/>
<path d="M177.974 100.426C182.115 100.426 185.472 96.4658 185.472 91.5803C185.472 86.6948 182.115 82.7343 177.974 82.7343C173.833 82.7343 170.477 86.6948 170.477 91.5803C170.477 96.4658 173.833 100.426 177.974 100.426Z" fill="black" fill-opacity="0.2"/>
<path d="M162.967 100.426C167.167 100.426 170.572 96.4658 170.572 91.5803C170.572 86.6948 167.167 82.7343 162.967 82.7343C158.766 82.7343 155.361 86.6948 155.361 91.5803C155.361 96.4658 158.766 100.426 162.967 100.426Z" fill="#D8DEE8"/>
<path d="M207.823 100.426C211.964 100.426 215.322 96.4658 215.322 91.5803C215.322 86.6948 211.964 82.7343 207.823 82.7343C203.681 82.7343 200.324 86.6948 200.324 91.5803C200.324 96.4658 203.681 100.426 207.823 100.426Z" fill="#DD51D4"/>
<path d="M207.823 100.426C211.964 100.426 215.322 96.4658 215.322 91.5803C215.322 86.6948 211.964 82.7343 207.823 82.7343C203.681 82.7343 200.324 86.6948 200.324 91.5803C200.324 96.4658 203.681 100.426 207.823 100.426Z" fill="black" fill-opacity="0.2"/>
<path d="M192.816 100.426C197.017 100.426 200.422 96.4658 200.422 91.5803C200.422 86.6948 197.017 82.7343 192.816 82.7343C188.616 82.7343 185.211 86.6948 185.211 91.5803C185.211 96.4658 188.616 100.426 192.816 100.426Z" fill="#D8DEE8"/>
<path d="M222.664 100.426C226.864 100.426 230.269 96.4658 230.269 91.5803C230.269 86.6948 226.864 82.7343 222.664 82.7343C218.464 82.7343 215.059 86.6948 215.059 91.5803C215.059 96.4658 218.464 100.426 222.664 100.426Z" fill="#D8DEE8"/>
<path d="M133.121 100.426C137.321 100.426 140.726 96.4658 140.726 91.5803C140.726 86.6948 137.321 82.7343 133.121 82.7343C128.921 82.7343 125.516 86.6948 125.516 91.5803C125.516 96.4658 128.921 100.426 133.121 100.426Z" fill="#D8DEE8"/>
<path d="M79.1465 39.3957L125.676 92.7782H245.77L187.577 46.1563L79.1465 39.3957Z" fill="url(#paint13_linear_1525_19530)"/>
<path d="M79.1465 39.3957L125.676 92.7782H245.77L187.577 46.1563L79.1465 39.3957Z" fill="#DD51D4"/>
<path d="M79.1465 39.3957L125.676 92.7782H140.724L91.6628 40.1755L79.1465 39.3957Z" fill="#F4F7FA"/>
<path d="M105.102 41.0136L155.553 92.7782H170.416L118.64 41.8584L105.102 41.0136Z" fill="#F4F7FA"/>
<path d="M132.281 42.7081L185.317 92.7782H200.254L146.023 43.5655L132.281 42.7081Z" fill="#F4F7FA"/>
<path d="M173.823 45.2989L159.869 44.4288L215.224 92.7782H230.234L173.823 45.2989Z" fill="#F4F7FA"/>
<path d="M230.248 92.7782C230.745 97.0964 233.874 100.427 237.669 100.427C241.465 100.427 244.595 97.0964 245.091 92.7782H230.248Z" fill="#DD51D4"/>
<path d="M230.248 92.7782C230.745 97.0964 233.874 100.427 237.669 100.427C241.465 100.427 244.595 97.0964 245.091 92.7782H230.248Z" fill="black" fill-opacity="0.2"/>
<path opacity="0.63" d="M173.169 126.126C166.67 111.158 150.197 103.888 136.366 109.889C122.535 115.89 116.589 132.89 123.083 147.859C129.578 162.828 146.056 170.096 159.886 164.095C173.717 158.094 179.664 141.091 173.169 126.126ZM152.775 147.458L153.329 151.673L149.277 152.205L148.765 148.278C145.979 148.519 143.194 148.128 141.504 147.425L142.108 142.425C143.969 143.147 146.522 143.696 149.21 143.342C151.566 143.033 153.059 141.911 152.841 140.258C152.635 138.686 151.181 137.869 147.991 137.237C143.372 136.33 140.083 134.66 139.552 130.65C139.075 127.013 141.263 123.824 145.572 122.374L145.056 118.447L149.107 117.916L149.585 121.553C152.371 121.312 154.307 121.65 155.758 122.129L155.176 126.958C154.042 126.644 152.015 125.943 149.038 126.335C146.352 126.687 145.636 127.959 145.788 129.117C145.968 130.48 147.528 131.154 151.22 132.02C156.367 133.11 158.65 135.124 159.139 138.841C159.611 142.521 157.42 146.005 152.775 147.458Z" fill="#F4F7FA"/>
<g opacity="0.63">
<path opacity="0.63" d="M188.009 207.404L124.703 209.321C123.603 209.355 122.529 208.984 121.684 208.28C120.838 207.575 120.281 206.586 120.116 205.498L117.549 188.621C117.453 187.988 117.493 187.342 117.666 186.727C117.839 186.111 118.141 185.539 118.552 185.049C118.964 184.559 119.475 184.162 120.051 183.886C120.628 183.609 121.257 183.458 121.896 183.443L185.27 181.975C186.366 181.949 187.433 182.323 188.272 183.027C189.111 183.731 189.665 184.717 189.829 185.8L192.327 202.227C192.423 202.857 192.383 203.5 192.212 204.114C192.041 204.728 191.741 205.298 191.333 205.787C190.925 206.277 190.417 206.674 189.844 206.952C189.271 207.231 188.646 207.385 188.009 207.404Z" fill="#F4F7FA"/>
<path opacity="0.63" d="M190.135 221.278L126.865 223.44C125.763 223.478 124.685 223.109 123.836 222.404C122.987 221.7 122.427 220.708 122.261 219.617L122.237 219.458C122.141 218.829 122.18 218.187 122.351 217.574C122.521 216.961 122.82 216.391 123.227 215.902C123.635 215.412 124.141 215.015 124.713 214.736C125.285 214.457 125.909 214.302 126.545 214.282L189.838 212.277C190.938 212.242 192.014 212.611 192.86 213.316C193.707 214.02 194.266 215.011 194.431 216.099C194.527 216.728 194.489 217.369 194.319 217.982C194.149 218.594 193.851 219.164 193.445 219.653C193.039 220.142 192.535 220.54 191.964 220.82C191.393 221.1 190.77 221.256 190.135 221.278Z" fill="#F4F7FA"/>
</g>
</g>
<defs>
<linearGradient id="paint0_linear_1525_19530" x1="268.965" y1="34.0734" x2="-59.0352" y2="67.3528" gradientUnits="userSpaceOnUse">
<stop stop-color="#7C4EAB"/>
<stop offset="1" stop-color="#DD51D4"/>
</linearGradient>
<linearGradient id="paint1_linear_1525_19530" x1="60970.5" y1="80167.1" x2="62425.6" y2="102230" gradientUnits="userSpaceOnUse">
<stop stop-color="#E38DDD"/>
<stop offset="1" stop-color="#9571F6"/>
</linearGradient>
<linearGradient id="paint2_linear_1525_19530" x1="-8.04567" y1="160.311" x2="24.3557" y2="214.647" gradientUnits="userSpaceOnUse">
<stop stop-color="#FF9085"/>
<stop offset="1" stop-color="#FB6FBB"/>
</linearGradient>
<linearGradient id="paint3_linear_1525_19530" x1="14305.7" y1="225075" x2="47427" y2="241030" gradientUnits="userSpaceOnUse">
<stop stop-color="#FF9085"/>
<stop offset="1" stop-color="#FB6FBB"/>
</linearGradient>
<linearGradient id="paint4_linear_1525_19530" x1="71208.2" y1="209689" x2="178805" y2="304224" gradientUnits="userSpaceOnUse">
<stop stop-color="#FF9085"/>
<stop offset="1" stop-color="#FB6FBB"/>
</linearGradient>
<linearGradient id="paint5_linear_1525_19530" x1="61423.6" y1="71797" x2="66005.2" y2="102569" gradientUnits="userSpaceOnUse">
<stop stop-color="#E38DDD"/>
<stop offset="1" stop-color="#9571F6"/>
</linearGradient>
<linearGradient id="paint6_linear_1525_19530" x1="110114" y1="250880" x2="214669" y2="331674" gradientUnits="userSpaceOnUse">
<stop stop-color="#FF9085"/>
<stop offset="1" stop-color="#FB6FBB"/>
</linearGradient>
<linearGradient id="paint7_linear_1525_19530" x1="7096.34" y1="14819" x2="7211.06" y2="14861.6" gradientUnits="userSpaceOnUse">
<stop stop-color="#E38DDD"/>
<stop offset="1" stop-color="#9571F6"/>
</linearGradient>
<linearGradient id="paint8_linear_1525_19530" x1="10897.4" y1="14826.1" x2="11012.5" y2="14868.7" gradientUnits="userSpaceOnUse">
<stop stop-color="#E38DDD"/>
<stop offset="1" stop-color="#9571F6"/>
</linearGradient>
<linearGradient id="paint9_linear_1525_19530" x1="92.5739" y1="145.253" x2="299.421" y2="112.523" gradientUnits="userSpaceOnUse">
<stop stop-color="#444B8C"/>
<stop offset="1" stop-color="#26264F"/>
</linearGradient>
<linearGradient id="paint10_linear_1525_19530" x1="185.561" y1="64.955" x2="-18.1419" y2="487.473" gradientUnits="userSpaceOnUse">
<stop stop-color="#FFC444"/>
<stop offset="1" stop-color="#F36F56"/>
</linearGradient>
<linearGradient id="paint11_linear_1525_19530" x1="212.747" y1="61.1743" x2="50.537" y2="70.9326" gradientUnits="userSpaceOnUse">
<stop stop-color="#7C4EAB"/>
<stop offset="1" stop-color="#DD51D4"/>
</linearGradient>
<linearGradient id="paint12_linear_1525_19530" x1="212.4" y1="59.677" x2="57.9456" y2="69.2452" gradientUnits="userSpaceOnUse">
<stop stop-color="#7C4EAB"/>
<stop offset="1" stop-color="#DD51D4"/>
</linearGradient>
<linearGradient id="paint13_linear_1525_19530" x1="146213" y1="36411" x2="432448" y2="36411" gradientUnits="userSpaceOnUse">
<stop stop-color="#FF9085"/>
<stop offset="1" stop-color="#FB6FBB"/>
</linearGradient>
<clipPath id="clip0_1525_19530">
<rect width="270" height="277.697" fill="white"/>
</clipPath>
</defs>
</svg>
