<svg width="188" height="44" viewBox="0 0 188 44" fill="none" xmlns="http://www.w3.org/2000/svg">
<path d="M66.2032 30.7345C65.6089 30.7345 64.9237 30.6437 64.1478 30.4621L61.6961 29.7935L62.3648 27.7876C63.7516 28.2829 64.9072 28.5305 65.8318 28.5305C66.3271 28.5305 66.7398 28.4149 67.07 28.1838C67.4002 27.9527 67.5653 27.639 67.5653 27.2428C67.5653 26.8465 67.458 26.5494 67.2433 26.3513C67.0287 26.1531 66.6325 25.9798 66.0546 25.8312L64.7174 25.4845C62.8683 25.0057 61.9438 23.9161 61.9438 22.2156C61.9438 21.192 62.3317 20.35 63.1077 19.6897C63.9002 19.0293 64.932 18.6991 66.2032 18.6991C66.715 18.6991 67.3176 18.7899 68.011 18.9715L70.4627 19.6401L69.7941 21.646C68.4568 21.1507 67.4415 20.9031 66.7481 20.9031C66.2858 20.9031 65.8978 21.0269 65.5841 21.2746C65.2704 21.5057 65.1136 21.8111 65.1136 22.1908C65.1136 22.5871 65.2209 22.8842 65.4355 23.0824C65.6502 23.2805 66.0464 23.4538 66.6242 23.6024L67.9367 23.9491C68.9273 24.2133 69.6372 24.6177 70.0665 25.1626C70.4957 25.6909 70.7103 26.376 70.7103 27.218C70.7103 28.2251 70.3306 29.0671 69.5712 29.744C68.8117 30.4043 67.6891 30.7345 66.2032 30.7345ZM76.7946 30.7345C75.5564 30.7345 74.6814 30.4291 74.1696 29.8183C73.6743 29.2074 73.4267 28.2746 73.4267 27.0199V21.1012H71.5941V18.922H73.4267V16.0245L76.5717 15.4054V18.922H79.2958V21.1012H76.5717V27.0694C76.5717 28.0435 76.968 28.5305 77.7604 28.5305C78.2392 28.5305 78.751 28.3819 79.2958 28.0848L79.7911 29.9421C78.8831 30.4704 77.8843 30.7345 76.7946 30.7345ZM84.5056 30.7345C83.383 30.7345 82.4914 30.3878 81.8311 29.6944C81.1707 29.001 80.8405 28.1756 80.8405 27.218C80.8405 26.5081 81.0716 25.9385 81.5339 25.5093C82.0127 25.0635 82.7556 24.7168 83.7627 24.4692L87.7497 23.4786V22.4633C87.7497 21.9845 87.6012 21.6048 87.304 21.3241C87.0233 21.0434 86.6271 20.9031 86.1153 20.9031C85.5375 20.9031 84.2332 21.3406 82.2025 22.2156L81.3358 20.2097L84.1589 19.1696C85.0174 18.8559 85.6448 18.6991 86.041 18.6991C87.5434 18.6991 88.7238 19.0953 89.5823 19.8878C90.4573 20.6637 90.8948 21.6873 90.8948 22.9585V27.218C90.8948 27.5317 90.9443 28.0022 91.0434 28.6296C91.159 29.2404 91.3075 29.7605 91.4892 30.1897L88.7898 30.7345C88.4597 30.3713 88.113 29.8678 87.7497 29.2239C86.6436 30.231 85.5622 30.7345 84.5056 30.7345ZM85.62 28.5305C86.2639 28.5305 86.9738 28.159 87.7497 27.4161V24.9149L85.2733 25.6331C84.4809 25.8642 84.0846 26.3017 84.0846 26.9456C84.0846 27.4409 84.225 27.8289 84.5056 28.1095C84.7863 28.3902 85.1577 28.5305 85.62 28.5305ZM97.4361 30.7345C96.1979 30.7345 95.3228 30.4291 94.8111 29.8183C94.3158 29.2074 94.0681 28.2746 94.0681 27.0199V21.1012H92.2356V18.922H94.0681V16.0245L97.2132 15.4054V18.922H99.9373V21.1012H97.2132V27.0694C97.2132 28.0435 97.6094 28.5305 98.4019 28.5305C98.8807 28.5305 99.3925 28.3819 99.9373 28.0848L100.433 29.9421C99.5245 30.4704 98.5257 30.7345 97.4361 30.7345ZM132.412 30.5117H129.267V23.751C129.267 22.7604 129.119 22.0423 128.822 21.5965C128.541 21.1342 128.087 20.9031 127.46 20.9031C126.832 20.9031 126.155 21.2746 125.429 22.0175V30.5117H122.284V23.751C122.284 22.7604 122.143 22.0423 121.863 21.5965C121.582 21.1342 121.12 20.9031 120.476 20.9031C119.865 20.9031 119.188 21.2746 118.445 22.0175V30.5117H115.3V22.2156C115.3 21.9019 115.242 21.4397 115.127 20.8288C115.028 20.2014 114.887 19.6731 114.706 19.2439L117.38 18.6991C117.727 19.0458 118.082 19.5493 118.445 20.2097C119.485 19.2026 120.567 18.6991 121.689 18.6991C123.357 18.6991 124.488 19.2852 125.082 20.4573C125.445 19.9786 125.965 19.5658 126.642 19.2191C127.319 18.8724 127.996 18.6991 128.673 18.6991C129.928 18.6991 130.86 19.0623 131.471 19.7887C132.099 20.5151 132.412 21.646 132.412 23.1814V30.5117ZM138.122 30.7345C137 30.7345 136.108 30.3878 135.448 29.6944C134.787 29.001 134.457 28.1756 134.457 27.218C134.457 26.5081 134.688 25.9385 135.151 25.5093C135.629 25.0635 136.372 24.7168 137.379 24.4692L141.366 23.4786V22.4633C141.366 21.9845 141.218 21.6048 140.921 21.3241C140.64 21.0434 140.244 20.9031 139.732 20.9031C139.154 20.9031 137.85 21.3406 135.819 22.2156L134.952 20.2097L137.776 19.1696C138.634 18.8559 139.261 18.6991 139.658 18.6991C141.16 18.6991 142.34 19.0953 143.199 19.8878C144.074 20.6637 144.511 21.6873 144.511 22.9585V27.218C144.511 27.5317 144.561 28.0022 144.66 28.6296C144.776 29.2404 144.924 29.7605 145.106 30.1897L142.407 30.7345C142.076 30.3713 141.73 29.8678 141.366 29.2239C140.26 30.231 139.179 30.7345 138.122 30.7345ZM139.237 28.5305C139.881 28.5305 140.59 28.159 141.366 27.4161V24.9149L138.89 25.6331C138.098 25.8642 137.701 26.3017 137.701 26.9456C137.701 27.4409 137.842 27.8289 138.122 28.1095C138.403 28.3902 138.774 28.5305 139.237 28.5305ZM150.477 30.5117H147.332V22.2156C147.332 21.9019 147.275 21.4397 147.159 20.8288C147.06 20.2014 146.92 19.6731 146.738 19.2439L149.413 18.6991C149.924 19.2109 150.279 19.9043 150.477 20.7793C150.808 20.1189 151.245 19.6071 151.79 19.2439C152.351 18.8807 152.954 18.6991 153.598 18.6991C153.961 18.6991 154.291 18.7569 154.588 18.8724L154.043 21.5717H153.226C152.45 21.5717 151.839 21.7616 151.394 22.1413C150.964 22.5045 150.659 23.1154 150.477 23.9739V30.5117ZM166.831 30.5117H162.968L159.129 24.5187V30.5117H155.984V13.9691L159.129 13.35V23.6519L163.042 18.922H166.583L161.928 24.0977L166.831 30.5117ZM172.468 30.7345C170.603 30.7345 169.191 30.1815 168.234 29.0753C167.293 27.9527 166.822 26.4833 166.822 24.6673C166.822 22.8512 167.309 21.4066 168.283 20.3335C169.257 19.2439 170.611 18.6991 172.344 18.6991C175.696 18.6991 177.372 20.4408 177.372 23.9243C177.372 24.2876 177.33 24.593 177.248 24.8406H170.066C170.066 26.0788 170.289 27.0034 170.735 27.6142C171.197 28.2251 171.833 28.5305 172.642 28.5305C173.55 28.5305 174.738 28.2003 176.208 27.5399L177.074 29.5458L174.449 30.5117C174.004 30.6602 173.343 30.7345 172.468 30.7345ZM172.171 20.9031C171.511 20.9031 170.991 21.1342 170.611 21.5965C170.248 22.0588 170.066 22.6366 170.066 23.33H174.103C174.103 21.7121 173.459 20.9031 172.171 20.9031ZM183.539 30.7345C182.3 30.7345 181.425 30.4291 180.913 29.8183C180.418 29.2074 180.171 28.2746 180.171 27.0199V21.1012H178.338V18.922H180.171V16.0245L183.316 15.4054V18.922H186.04V21.1012H183.316V27.0694C183.316 28.0435 183.712 28.5305 184.504 28.5305C184.983 28.5305 185.495 28.3819 186.04 28.0848L186.535 29.9421C185.627 30.4704 184.628 30.7345 183.539 30.7345Z" fill="#54618E"/>
<path d="M111.71 30.5117H108.713V26.698H101.952L101.284 24.7663L108.342 14.6625H111.71V24.3701H113.295V26.698H111.71V30.5117ZM108.713 24.3701V17.9314L104.33 24.3701H108.713Z" fill="#D653D2"/>
<mask id="mask0_1458_22844" style="mask-type:alpha" maskUnits="userSpaceOnUse" x="0" y="0" width="47" height="44">
<ellipse cx="23.5" cy="22" rx="23.5" ry="22" fill="url(#paint0_linear_1458_22844)"/>
</mask>
<g mask="url(#mask0_1458_22844)">
<ellipse cx="23.5" cy="22" rx="23.5" ry="22" fill="url(#paint1_linear_1458_22844)"/>
<path d="M30.973 28.1049V3.65188C30.973 3.27788 30.9848 2.87088 31.0082 2.43088C31.0553 1.99088 31.1023 1.53988 31.1493 1.07788L9.57625 28.1049H30.973ZM50.9423 28.1049V29.8209C50.9423 30.0629 50.86 30.2609 50.6955 30.4149C50.5545 30.5469 50.3195 30.6129 49.9905 30.6129H33.934V44.0109H30.973V30.6129H7.39075C7.03825 30.6129 6.768 30.5469 6.58 30.4149C6.392 30.2609 6.26275 30.0629 6.19225 29.8209L5.875 28.2699L30.9377 -2.75012H33.934V28.1049H50.9423Z" fill="white"/>
</g>
<defs>
<linearGradient id="paint0_linear_1458_22844" x1="54.05" y1="-13.2" x2="17.1277" y2="46.2454" gradientUnits="userSpaceOnUse">
<stop stop-color="#FF00AA"/>
<stop offset="1" stop-color="#8912DE"/>
</linearGradient>
<linearGradient id="paint1_linear_1458_22844" x1="54.05" y1="-13.2" x2="17.1277" y2="46.2454" gradientUnits="userSpaceOnUse">
<stop stop-color="#FF00AA"/>
<stop offset="1" stop-color="#8912DE"/>
</linearGradient>
</defs>
</svg>
